<svg width="307" height="83" viewBox="0 0 307 83" fill="none" xmlns="http://www.w3.org/2000/svg">
<path d="M55.22 4.44C55.44 4.77 55.66 5.21 55.66 5.64999V15.66C55.66 16.21 55.44 16.65 55.22 16.87C54.89 17.2 54.45 17.31 54.01 17.31H37.4V79.35C37.4 79.9 37.18 80.34 36.96 80.56C36.63 80.89 36.19 81 35.75 81H23.98C23.43 81 22.99 80.89 22.77 80.56C22.44 80.34 22.33 79.9 22.33 79.35V17.31H5.72C5.17 17.31 4.73 17.2 4.51 16.87C4.18 16.65 4.07 16.21 4.07 15.66V5.64999C4.07 5.21 4.18 4.77 4.51 4.44C4.73 4.22 5.17 3.99999 5.72 3.99999H54.01C54.45 3.99999 54.89 4.22 55.22 4.44ZM105.487 7.19C109.667 9.39 112.857 12.36 115.057 16.1C117.257 19.84 118.357 24.24 118.357 29.08C118.357 34.14 117.257 38.54 115.057 42.28C112.857 46.02 109.667 48.99 105.487 51.08C101.307 53.28 96.2466 54.27 90.4166 54.27H81.0666V79.35C81.0666 79.9 80.8466 80.34 80.6266 80.56C80.2966 80.89 79.8566 81 79.4166 81H67.6466C67.0966 81 66.6566 80.89 66.4366 80.56C66.1066 80.34 65.9966 79.9 65.9966 79.35V5.64999C65.9966 5.21 66.1066 4.77 66.4366 4.44C66.6566 4.22 67.0966 3.99999 67.6466 3.99999H90.4166C96.2466 3.99999 101.307 5.09999 105.487 7.19ZM99.9866 38.1C102.627 36.34 103.947 33.26 103.947 29.08C103.947 25.01 102.627 22.04 99.9866 20.17C97.3466 18.3 94.0466 17.31 90.0866 17.31H81.0666V40.85H90.0866C94.0466 40.85 97.3466 39.97 99.9866 38.1ZM135.222 78.36C130.932 75.94 127.522 72.53 125.102 68.24C122.572 63.95 121.362 59.22 121.362 54.05C121.362 48.99 122.572 44.26 125.102 39.86C127.522 35.57 130.932 32.16 135.222 29.63C139.402 27.21 144.132 25.89 149.192 25.89C154.252 25.89 158.872 27.21 163.162 29.63C167.452 32.16 170.862 35.57 173.392 39.86C175.812 44.26 177.132 48.99 177.132 54.05C177.132 59.22 175.812 63.95 173.392 68.24C170.862 72.53 167.452 75.94 163.162 78.36C158.872 80.89 154.252 82.1 149.192 82.1C144.132 82.1 139.402 80.89 135.222 78.36ZM159.092 64.5C161.732 61.75 163.162 58.23 163.162 54.05C163.162 49.87 161.732 46.35 159.092 43.49C156.452 40.74 153.152 39.31 149.192 39.31C145.232 39.31 141.932 40.74 139.292 43.49C136.652 46.35 135.332 49.87 135.332 54.05C135.332 58.23 136.652 61.75 139.292 64.5C141.932 67.36 145.232 68.68 149.192 68.68C153.152 68.68 156.452 67.36 159.092 64.5ZM188.164 14.56C186.624 13.02 185.854 11.04 185.854 8.84C185.854 6.63999 186.624 4.77 188.164 3.23C189.704 1.69 191.574 0.809996 193.774 0.809996C195.974 0.809996 197.844 1.69 199.384 3.23C200.924 4.77 201.694 6.63999 201.694 8.84C201.694 11.04 200.924 13.02 199.384 14.56C197.844 16.1 195.974 16.87 193.774 16.87C191.574 16.87 189.704 16.1 188.164 14.56ZM186.954 27.54C187.174 27.32 187.614 27.1 188.164 27.1H199.384C199.824 27.1 200.264 27.32 200.594 27.54C200.814 27.87 201.034 28.31 201.034 28.75V79.35C201.034 79.9 200.814 80.34 200.594 80.56C200.264 80.89 199.824 81 199.384 81H188.164C187.614 81 187.174 80.89 186.954 80.56C186.624 80.34 186.514 79.9 186.514 79.35V28.75C186.514 28.31 186.624 27.87 186.954 27.54ZM253.425 28.64C256.395 30.4 258.705 33.04 260.465 36.45C262.115 39.97 262.995 44.04 262.995 48.66V79.35C262.995 79.9 262.775 80.34 262.555 80.56C262.225 80.89 261.785 81 261.345 81H250.125C249.575 81 249.135 80.89 248.915 80.56C248.585 80.34 248.475 79.9 248.475 79.35V51.3C248.475 47.12 247.485 44.15 245.615 42.17C243.635 40.3 241.325 39.31 238.465 39.31C235.935 39.31 233.735 39.97 231.975 41.29C230.215 42.61 228.785 44.15 227.905 45.8C227.025 47.56 226.585 48.88 226.585 49.87V79.35C226.585 79.9 226.365 80.34 226.145 80.56C225.815 80.89 225.375 81 224.935 81H213.715C213.165 81 212.725 80.89 212.505 80.56C212.175 80.34 212.065 79.9 212.065 79.35V28.75C212.065 28.31 212.175 27.87 212.505 27.54C212.725 27.32 213.165 27.1 213.715 27.1H224.495C225.375 27.1 225.925 27.65 226.145 28.75L226.585 35.79C228.455 32.82 230.765 30.4 233.625 28.64C236.485 26.88 239.785 25.89 243.525 25.89C247.155 25.89 250.455 26.88 253.425 28.64ZM303.377 27.54C303.597 27.87 303.817 28.31 303.817 28.75V37.33C303.817 37.88 303.597 38.32 303.377 38.54C303.047 38.87 302.607 38.98 302.167 38.98H293.367V79.35C293.367 79.9 293.147 80.34 292.927 80.56C292.597 80.89 292.157 81 291.717 81H280.497C279.947 81 279.507 80.89 279.287 80.56C278.957 80.34 278.847 79.9 278.847 79.35V38.98H270.047C269.497 38.98 269.057 38.87 268.837 38.54C268.507 38.32 268.397 37.88 268.397 37.33V28.75C268.397 28.31 268.507 27.87 268.837 27.54C269.057 27.32 269.497 27.1 270.047 27.1H278.847V12.25C278.847 11.81 278.957 11.37 279.287 11.04C279.507 10.82 279.947 10.6 280.497 10.6H291.717C292.157 10.6 292.597 10.82 292.927 11.04C293.147 11.37 293.367 11.81 293.367 12.25V27.1H302.167C302.607 27.1 303.047 27.32 303.377 27.54Z" fill="white"/>
<circle cx="149" cy="54" r="9" fill="#FFC629"/>
</svg>
