<svg width="201" height="61" viewBox="0 0 201 61" fill="none" xmlns="http://www.w3.org/2000/svg">
<path d="M89.1118 51.9647C89.5199 51.8071 89.8225 51.3699 89.8225 50.7928C89.8225 50.0394 89.2799 49.3903 88.1601 49.3903H86.2661C86.1941 49.3903 86.1461 49.4372 86.1461 49.5092V54.8177C86.1461 54.8887 86.1941 54.9367 86.2661 54.9367H88.1601C89.5668 54.9367 90.2305 54.3826 90.2305 53.3359C90.2305 52.6148 89.7035 52.1149 89.1118 51.9647M88.8009 50.9274C88.8009 51.3709 88.5045 51.5775 88.0652 51.5775H87.2418V50.3493H88.0652C88.4972 50.3493 88.8009 50.5079 88.8009 50.9284M88.1925 53.9797H87.2408V52.4729H88.1925C88.7842 52.4729 89.1369 52.7192 89.1369 53.219C89.1369 53.7189 88.7769 53.9808 88.1925 53.9808M91.5412 50.319C91.8689 50.319 92.1162 50.0581 92.1162 49.7409C92.1162 49.4237 91.8689 49.1628 91.5412 49.1628C91.2135 49.1628 90.9662 49.4237 90.9662 49.7409C90.9662 50.0581 91.2135 50.319 91.5412 50.319ZM91.0142 51.1758V54.8198C91.0142 54.8908 91.0622 54.9388 91.1353 54.9388H91.9492C92.0212 54.9388 92.0692 54.8908 92.0692 54.8198V51.1758C92.0692 51.1038 92.0212 51.0568 91.9492 51.0568H91.1353C91.0622 51.0568 91.0142 51.1038 91.0142 51.1758ZM95.5453 51.1518C95.4336 51.0568 95.2416 50.9691 95.0256 50.9691C94.5539 50.9691 94.2335 51.23 94.0269 51.5942L93.9956 51.1747C93.9873 51.1027 93.9466 51.0558 93.8746 51.0558H93.1013C93.0282 51.0558 92.9813 51.1027 92.9813 51.1747V54.8188C92.9813 54.8897 93.0282 54.9377 93.1013 54.9377H93.9152C93.9873 54.9377 94.0342 54.8897 94.0342 54.8188V52.7599C94.0342 52.284 94.3462 51.9188 94.8409 51.9188C94.9932 51.9188 95.0892 51.9501 95.1696 51.9741C95.2572 51.9981 95.3209 51.9824 95.3532 51.8948L95.586 51.3083C95.61 51.253 95.61 51.1987 95.5453 51.1507M101.716 49.3913H98.2084C98.1353 49.3913 98.0873 49.4383 98.0873 49.5103V50.2303C98.0873 50.3023 98.1353 50.3493 98.2084 50.3493H99.4136V54.8188C99.4136 54.8897 99.4627 54.9377 99.5347 54.9377H100.389C100.461 54.9377 100.508 54.8897 100.508 54.8188V50.3493H101.716C101.789 50.3493 101.836 50.3023 101.836 50.2303V49.5103C101.836 49.4383 101.789 49.3913 101.716 49.3913ZM105.633 51.0547H104.818C104.746 51.0547 104.698 51.1017 104.698 51.1737V53.3213C104.698 53.5989 104.418 54.0737 103.851 54.0737C103.482 54.0737 103.107 53.8524 103.107 53.2107V51.1747C103.107 51.1027 103.059 51.0558 102.988 51.0558H102.173C102.101 51.0558 102.053 51.1027 102.053 51.1747V53.4006C102.053 54.4379 102.652 55.04 103.53 55.04C104.026 55.04 104.427 54.7624 104.698 54.3826L104.73 54.8177C104.739 54.8887 104.777 54.9367 104.85 54.9367H105.633C105.704 54.9367 105.753 54.8887 105.753 54.8177V51.1737C105.753 51.1017 105.704 51.0547 105.633 51.0547M109.208 51.1497C109.096 51.0547 108.905 50.9671 108.689 50.9671C108.217 50.9671 107.897 51.2279 107.688 51.5921L107.657 51.1726C107.648 51.1006 107.609 51.0537 107.537 51.0537H106.761C106.689 51.0537 106.642 51.1006 106.642 51.1726V54.8167C106.642 54.8876 106.689 54.9356 106.761 54.9356H107.575C107.648 54.9356 107.695 54.8876 107.695 54.8167V52.7578C107.695 52.2819 108.007 51.9167 108.503 51.9167C108.654 51.9167 108.75 51.948 108.831 51.972C108.918 51.996 108.982 51.9803 109.014 51.8927L109.247 51.3062C109.271 51.2509 109.271 51.1966 109.207 51.1486M113.592 54.7927L111.969 52.6701L113.361 51.1966C113.433 51.1246 113.399 51.0537 113.296 51.0537H112.369C112.313 51.0537 112.266 51.0693 112.225 51.1173L110.794 52.6461V49.2713C110.794 49.1993 110.746 49.1523 110.674 49.1523H109.861C109.788 49.1523 109.739 49.1993 109.739 49.2713V54.8177C109.739 54.8887 109.788 54.9367 109.861 54.9367H110.674C110.746 54.9367 110.794 54.8887 110.794 54.8177V53.9067L111.33 53.3453L112.496 54.8657C112.536 54.921 112.577 54.9377 112.64 54.9377H113.519C113.615 54.9377 113.648 54.8741 113.591 54.7948M115.811 54.0267C115.227 54.0267 114.811 53.5665 114.811 52.98C114.811 52.3936 115.226 51.9417 115.811 51.9417C116.17 51.9417 116.401 52.093 116.626 52.2903C116.689 52.3466 116.746 52.3539 116.801 52.2986L117.289 51.8311C117.336 51.7841 117.345 51.7205 117.297 51.6652C116.929 51.2457 116.401 50.9765 115.794 50.9765C114.667 50.9765 113.797 51.8624 113.797 52.98C113.797 54.0977 114.667 54.993 115.794 54.993C116.418 54.993 116.953 54.7238 117.321 54.3043C117.369 54.249 117.36 54.1864 117.312 54.1384L116.825 53.6792C116.769 53.6229 116.712 53.6229 116.649 53.6792C116.425 53.8764 116.184 54.0278 115.81 54.0278M121.583 52.8945C121.583 51.8635 120.855 50.9775 119.721 50.9775C118.587 50.9775 117.755 51.8635 117.755 52.9811C117.755 54.0987 118.594 54.9941 119.81 54.9941C120.376 54.9941 120.888 54.7728 121.264 54.3993C121.327 54.3366 121.327 54.2813 121.272 54.226L120.92 53.8848C120.864 53.8295 120.817 53.8295 120.752 53.8764C120.481 54.0674 120.225 54.1467 119.913 54.1467C119.306 54.1467 118.906 53.8618 118.803 53.362H121.311C121.544 53.362 121.583 53.2034 121.583 52.8945M119.728 51.8718C120.2 51.8718 120.576 52.1567 120.655 52.6805H118.785C118.872 52.1567 119.257 51.8718 119.728 51.8718ZM122.299 49.2724V54.8188C122.299 54.8897 122.346 54.9377 122.419 54.9377H123.233C123.305 54.9377 123.353 54.8897 123.353 54.8188V49.2724C123.353 49.2014 123.305 49.1534 123.233 49.1534H122.419C122.346 49.1534 122.299 49.2014 122.299 49.2724ZM124.233 49.2724V54.8188C124.233 54.8897 124.28 54.9377 124.353 54.9377H125.167C125.238 54.9377 125.287 54.8897 125.287 54.8188V49.2724C125.287 49.2014 125.238 49.1534 125.167 49.1534H124.353C124.28 49.1534 124.233 49.2014 124.233 49.2724ZM130.458 51.0558H129.819V49.9861C129.819 49.9141 129.772 49.8672 129.7 49.8672H128.886C128.813 49.8672 128.766 49.9141 128.766 49.9861V51.0558H128.127C128.055 51.0558 128.007 51.1027 128.007 51.1747V51.7915C128.007 51.8624 128.055 51.9094 128.127 51.9094H128.766V54.8177C128.766 54.8887 128.813 54.9367 128.886 54.9367H129.7C129.772 54.9367 129.819 54.8887 129.819 54.8177V51.9094H130.458C130.531 51.9094 130.579 51.8624 130.579 51.7915V51.1747C130.579 51.1027 130.531 51.0558 130.458 51.0558ZM134.778 52.8945C134.778 51.8635 134.051 50.9775 132.917 50.9775C131.784 50.9775 130.951 51.8635 130.951 52.9811C130.951 54.0987 131.79 54.9941 133.005 54.9941C133.573 54.9941 134.084 54.7728 134.46 54.3993C134.523 54.3366 134.523 54.2813 134.468 54.226L134.116 53.8848C134.061 53.8295 134.013 53.8295 133.948 53.8764C133.677 54.0674 133.421 54.1467 133.109 54.1467C132.502 54.1467 132.102 53.8618 131.999 53.362H134.508C134.741 53.362 134.779 53.2034 134.779 52.8945M132.926 51.8718C133.397 51.8718 133.772 52.1567 133.852 52.6805H131.982C132.07 52.1567 132.454 51.8718 132.926 51.8718ZM139.348 54.7958L137.725 52.6732L139.116 51.1998C139.188 51.1278 139.155 51.0568 139.051 51.0568H138.125C138.068 51.0568 138.02 51.0725 137.981 51.1205L136.551 52.6492V49.2744C136.551 49.2024 136.502 49.1555 136.43 49.1555H135.616C135.544 49.1555 135.496 49.2024 135.496 49.2744V54.8208C135.496 54.8918 135.544 54.9398 135.616 54.9398H136.43C136.502 54.9398 136.551 54.8918 136.551 54.8208V53.9098L137.086 53.3484L138.253 54.8688C138.293 54.9242 138.333 54.9408 138.397 54.9408H139.276C139.372 54.9408 139.404 54.8772 139.348 54.7979M142.2 50.9712C141.632 50.9712 141.224 51.2718 140.968 51.684L140.937 51.1779C140.929 51.1058 140.889 51.0589 140.817 51.0589H140.034C139.962 51.0589 139.914 51.1058 139.914 51.1779V54.8219C139.914 54.8928 139.962 54.9408 140.034 54.9408H140.848C140.921 54.9408 140.968 54.8928 140.968 54.8219V52.6983C140.968 52.5157 141.241 51.9375 141.832 51.9375C142.207 51.9375 142.561 52.1588 142.561 52.8006V54.8219C142.561 54.8928 142.608 54.9408 142.68 54.9408H143.494C143.567 54.9408 143.614 54.8928 143.614 54.8219V52.6106C143.614 51.5734 142.999 50.9712 142.2 50.9712M146.339 55.0191C147.466 55.0191 148.368 54.1248 148.368 52.9988C148.368 51.8729 147.465 50.9702 146.339 50.9702C145.213 50.9702 144.317 51.8645 144.317 52.9988C144.317 54.1332 145.211 55.0191 146.339 55.0191ZM146.339 54.0528C145.779 54.0528 145.331 53.6093 145.331 52.9988C145.331 52.3884 145.78 51.9365 146.339 51.9365C146.899 51.9365 147.355 52.3811 147.355 52.9988C147.355 53.6166 146.906 54.0528 146.339 54.0528ZM149.086 49.2744V54.8208C149.086 54.8918 149.133 54.9398 149.206 54.9398H150.02C150.092 54.9398 150.139 54.8918 150.139 54.8208V49.2744C150.139 49.2035 150.092 49.1555 150.02 49.1555H149.206C149.133 49.1555 149.086 49.2035 149.086 49.2744ZM152.867 55.0191C153.994 55.0191 154.896 54.1248 154.896 52.9988C154.896 51.8729 153.994 50.9702 152.867 50.9702C151.74 50.9702 150.845 51.8645 150.845 52.9988C150.845 54.1332 151.739 55.0191 152.867 55.0191ZM152.867 54.0528C152.307 54.0528 151.86 53.6093 151.86 52.9988C151.86 52.3884 152.307 51.9365 152.867 51.9365C153.426 51.9365 153.882 52.3811 153.882 52.9988C153.882 53.6166 153.434 54.0528 152.867 54.0528ZM156.38 50.3201C156.7 50.3201 156.964 50.0592 156.964 49.7419C156.964 49.4247 156.701 49.1638 156.38 49.1638C156.06 49.1638 155.797 49.4247 155.797 49.7419C155.797 50.0592 156.061 50.3201 156.38 50.3201ZM155.981 51.0578C155.909 51.0578 155.862 51.1048 155.862 51.1768V54.6706C155.862 55.2727 155.454 55.5033 155.037 55.5346C154.982 55.5346 154.958 55.5743 154.974 55.6223L155.229 56.4456C155.238 56.4853 155.277 56.5093 155.325 56.5093C156.268 56.478 156.915 55.9541 156.915 54.8615V51.1768C156.915 51.1048 156.868 51.0578 156.796 51.0578H155.981ZM158.37 50.3201C158.698 50.3201 158.946 50.0592 158.946 49.7419C158.946 49.4247 158.698 49.1638 158.37 49.1638C158.043 49.1638 157.795 49.4247 157.795 49.7419C157.795 50.0592 158.044 50.3201 158.37 50.3201ZM157.843 51.1768V54.8208C157.843 54.8918 157.891 54.9398 157.963 54.9398H158.777C158.849 54.9398 158.897 54.8918 158.897 54.8208V51.1768C158.897 51.1048 158.849 51.0578 158.777 51.0578H157.963C157.891 51.0578 157.843 51.1048 157.843 51.1768ZM160.716 52.1431C160.716 51.9438 160.894 51.8092 161.148 51.8092C161.421 51.8092 161.613 51.9115 161.916 52.1108C161.988 52.1661 162.044 52.1817 162.092 52.1181L162.395 51.7226C162.435 51.6746 162.451 51.6109 162.403 51.5556C162.075 51.1768 161.564 50.9702 161.052 50.9702C160.349 50.9702 159.702 51.4053 159.702 52.1494C159.702 53.458 161.589 53.1961 161.589 53.8138C161.589 54.0601 161.34 54.1394 161.092 54.1394C160.773 54.1394 160.437 53.9881 160.117 53.7825C160.046 53.7272 159.99 53.7116 159.942 53.7752L159.631 54.2114C159.6 54.2584 159.583 54.3137 159.631 54.37C159.911 54.6946 160.453 55.0191 161.125 55.0191C161.837 55.0191 162.62 54.584 162.62 53.8316C162.62 52.4051 160.717 52.7766 160.717 52.1431M163.855 50.3201C164.183 50.3201 164.43 50.0592 164.43 49.7419C164.43 49.4247 164.183 49.1638 163.855 49.1638C163.528 49.1638 163.28 49.4247 163.28 49.7419C163.28 50.0592 163.528 50.3201 163.855 50.3201ZM163.328 51.1768V54.8208C163.328 54.8918 163.376 54.9398 163.449 54.9398H164.263C164.334 54.9398 164.383 54.8918 164.383 54.8208V51.1768C164.383 51.1048 164.334 51.0578 164.263 51.0578H163.449C163.376 51.0578 163.328 51.1048 163.328 51.1768ZM165.8 55.0431C166.121 55.0431 166.384 54.7895 166.384 54.465C166.384 54.1405 166.121 53.8942 165.8 53.8942C165.48 53.8942 165.217 54.1488 165.217 54.465C165.217 54.7812 165.48 55.0431 165.8 55.0431Z" fill="white"/>
<path d="M186.905 48.4774C186.298 47.533 185.561 46.7587 184.7 46.1576C183.839 45.5555 182.854 45.1276 181.75 44.872C179.936 44.4525 178.174 44.6424 176.474 45.3917C175.535 45.8059 174.703 46.3778 173.987 47.1041C173.094 48.0109 172.448 49.0399 172.054 50.1878C172.05 50.1982 172.048 50.2086 172.044 50.2191C172.031 50.2587 172.018 50.3005 172.005 50.3412C171.603 51.6675 171.979 52.4011 172.573 51.7875C172.596 51.7604 172.62 51.7343 172.644 51.7092C172.652 51.6988 172.662 51.6884 172.671 51.6779C173.365 50.8191 174.469 50.1022 174.469 50.1022C174.75 49.9102 175.042 49.7286 175.346 49.5606C175.693 49.3613 176.055 49.1766 176.394 49.0524C176.394 49.0524 176.71 48.9105 176.792 48.4795C176.794 48.4722 176.795 48.4638 176.797 48.4555C176.797 48.4513 176.797 48.4471 176.799 48.443C176.857 48.084 177.246 47.0978 178.351 47.0321C178.697 46.9862 179.04 47.0457 179.344 47.1886C179.876 47.438 180.285 47.9369 180.367 48.539C180.433 49.018 180.317 49.4688 180.069 49.8257C180.056 49.8465 180.04 49.8674 180.023 49.8872C180.018 49.8935 180.013 49.8997 180.008 49.906C179.802 50.17 179.518 50.3746 179.179 50.4893C178.976 50.5634 178.77 50.601 178.571 50.6062C178.447 50.6219 178.309 50.6062 178.172 50.5718C178.016 50.5405 177.873 50.4893 177.751 50.4215C177.537 50.3224 177.365 50.2107 177.301 50.1544C177.251 50.1085 177.197 50.0834 177.144 50.0709C177.027 50.0521 176.931 50.074 176.863 50.1032H176.861C176.822 50.1199 176.792 50.1387 176.771 50.1544C176.506 50.3714 176.255 50.6 176.017 50.8379C175.391 51.4859 174.866 52.2227 174.617 52.5869C174.488 52.7924 174.363 53.0032 174.247 53.2203C174.138 53.4217 174.038 53.6252 173.943 53.8307C173.797 54.1553 173.659 54.5049 173.535 54.8805C173.53 54.8972 173.524 54.915 173.519 54.9327C173.51 54.9567 173.503 54.9797 173.496 55.0037C173.488 55.0266 173.482 55.0506 173.475 55.0736C172.716 57.6376 174.083 59.1173 175.229 57.5718C175.29 57.4737 175.355 57.3767 175.421 57.2796L175.423 57.2776C176.625 55.2301 179.088 53.7504 179.088 53.7504H179.09C179.241 53.6554 179.393 53.5657 179.547 53.477C179.547 53.477 179.557 53.4707 179.575 53.4603C179.998 53.2224 180.432 53.0095 180.88 52.8216C181.276 52.6484 181.699 52.4846 182.049 52.4011C182.049 52.4011 182.46 52.2957 182.569 51.799C182.647 51.4411 182.909 50.9193 183.503 50.6386C183.643 50.5687 183.788 50.5154 183.936 50.4831C184.095 50.4476 184.254 50.4361 184.409 50.4434H184.411C184.512 50.4413 184.598 50.4528 184.67 50.4737C185.423 50.6167 186.039 51.225 186.129 52.0275C186.238 53.0001 185.552 53.8788 184.57 53.9998C184.08 54.0614 183.637 53.9549 183.259 53.6742C182.836 53.4999 182.51 53.6116 182.393 53.6648C182.022 53.8641 181.667 54.0843 181.328 54.3264C180.697 54.7887 180.195 55.2708 179.997 55.4691C179.56 55.9147 179.173 56.3885 178.838 56.8894C178.821 56.9165 178.803 56.9436 178.785 56.9718C178.78 56.9791 178.776 56.9864 178.772 56.9937C178.426 57.5363 178.059 58.2293 177.756 59.0683C177.733 59.134 177.71 59.1977 177.69 59.2644C177.366 60.3414 178.066 60.7703 178.876 60.9258C178.876 60.9258 179.512 61.0468 180.425 60.98C180.479 60.9758 180.527 60.9706 180.568 60.9665C180.799 60.9383 181.03 60.9143 181.258 60.8757C182.835 60.6117 184.229 59.9626 185.42 58.9086C186.919 57.5823 187.821 55.9293 188.101 53.9643C188.382 51.9973 187.988 50.1544 186.907 48.4743" fill="white"/>
<path d="M4.04513 29.1543C4.24145 28.2422 4.51141 27.1502 4.8468 25.8822C5.18219 24.6143 5.59119 23.2646 6.06564 21.8371C7.41538 17.8329 9.58723 14.7285 12.5812 12.5239C15.5752 10.3234 19.1172 9.22321 23.2032 9.22321C25.6614 9.22321 27.8537 9.64858 29.7801 10.5034C31.7025 11.3582 33.269 12.5362 34.4796 14.0455C35.6903 15.5547 36.5125 17.338 36.9501 19.3994C37.3877 21.4608 37.3673 23.6818 36.8887 26.0622C36.492 28.0868 35.7762 29.9601 34.7455 31.6861C33.7148 33.4121 32.4632 34.9009 30.999 36.1484C29.5306 37.4 27.8946 38.3816 26.0908 39.0933C24.2871 39.8091 22.3934 40.1649 20.4097 40.1649C18.2665 40.1649 16.3727 39.8091 14.7285 39.0933C13.0802 38.3775 11.7427 37.3468 10.712 36.0012L8.03299 49.3881H0L4.04513 29.1584V29.1543ZM13.0884 24.5734C12.8511 25.7636 12.8389 26.8639 13.0597 27.8741C13.2765 28.8844 13.6733 29.7678 14.25 30.5204C14.8226 31.273 15.5588 31.8579 16.4504 32.2751C17.3421 32.6923 18.3442 32.9009 19.4567 32.9009C20.6469 32.9009 21.7676 32.6923 22.8187 32.2751C23.8699 31.8579 24.8229 31.2853 25.6736 30.5491C26.5244 29.8169 27.2402 28.9416 27.8169 27.9314C28.3895 26.9211 28.7985 25.8004 29.0357 24.5693C29.232 23.42 29.2239 22.3484 29.0071 21.3545C28.7903 20.3647 28.4018 19.5017 27.8455 18.7654C27.2892 18.0333 26.5653 17.4566 25.6736 17.0394C24.782 16.6222 23.7799 16.4136 22.6674 16.4136C21.4772 16.4136 20.3565 16.6222 19.3053 17.0394C18.2542 17.4566 17.3012 18.021 16.4504 18.7368C15.5956 19.4526 14.8839 20.3033 14.3072 21.2972C13.7305 22.2911 13.3256 23.3791 13.0884 24.5693V24.5734ZM40.2222 23.6204C40.6598 21.4772 41.4206 19.5139 42.5126 17.7306C43.6047 15.9474 44.9422 14.4299 46.5291 13.1783C48.1161 11.9268 49.9116 10.9574 51.9158 10.2621C53.92 9.56678 56.0714 9.21912 58.37 9.21912C60.4314 9.21912 62.317 9.52587 64.0226 10.1394C65.7281 10.7529 67.1965 11.6077 68.4276 12.6998C69.6587 13.7919 70.6199 15.0721 71.3152 16.5363C72.0105 18.0047 72.3582 19.5916 72.3582 21.2972C72.3582 22.6061 72.2478 23.9558 72.031 25.3423C71.8142 26.733 71.5852 28.0582 71.3479 29.3302L69.3233 39.5637H61.2904L62.362 34.2097C62.2434 34.5287 62.0552 34.8764 61.7975 35.2527C61.5399 35.629 61.2699 35.9766 60.9959 36.2957C59.9651 37.445 58.7054 38.3775 57.2166 39.0933C55.7278 39.8091 54.0345 40.1649 52.1285 40.1649C50.0671 40.1649 48.1897 39.7395 46.5046 38.8847C44.8195 38.034 43.4411 36.8601 42.3695 35.3754C41.2979 33.8907 40.5535 32.1442 40.1363 30.14C39.7191 28.1359 39.7477 25.964 40.2263 23.6245L40.2222 23.6204ZM48.1938 24.5734C47.7562 26.9947 48.112 28.9866 49.2654 30.5531C50.4147 32.1197 52.1408 32.905 54.4435 32.905C55.6337 32.905 56.7544 32.6964 57.8056 32.2792C58.8567 31.862 59.8097 31.2894 60.6605 30.5531C61.5112 29.821 62.2392 28.9457 62.8323 27.9355C63.4254 26.9252 63.8426 25.8045 64.0798 24.5734C64.317 23.3832 64.3375 22.2911 64.1412 21.3013C63.9407 20.3115 63.5644 19.4567 63.0123 18.7409C62.456 18.0251 61.7321 17.4607 60.8404 17.0435C59.9488 16.6263 58.9263 16.4177 57.7769 16.4177C55.2779 16.4177 53.1756 17.1539 51.47 18.6182C49.7644 20.0865 48.6724 22.0703 48.1979 24.5693L48.1938 24.5734ZM82.5876 9.81627L85.148 23.5631C85.4629 25.1092 85.6224 26.2994 85.6224 27.1338C85.6224 27.9682 85.5652 28.7003 85.4425 29.3343L97.7578 9.81627H107.038L81.0374 49.384H72.2314L80.1458 37.1873L74.1947 9.81627H82.5835H82.5876ZM103.832 23.5631C104.269 21.4199 105.001 19.4771 106.032 17.7306C107.063 15.9842 108.351 14.479 109.901 13.207C111.447 11.939 113.214 10.9574 115.198 10.2621C117.182 9.56678 119.325 9.21912 121.624 9.21912C123.726 9.21912 125.648 9.52587 127.395 10.1394C129.141 10.7529 130.638 11.6159 131.886 12.7284C133.137 13.8409 134.098 15.1375 134.773 16.6263C135.448 18.1151 135.784 19.7307 135.784 21.4772H127.333C127.252 20.0906 126.679 18.9004 125.607 17.9065C124.536 16.9167 122.99 16.4177 120.965 16.4177C118.626 16.4177 116.613 17.1621 114.924 18.6509C113.239 20.1397 112.175 22.1112 111.742 24.5734C111.541 25.7636 111.554 26.8761 111.771 27.9068C111.987 28.9376 112.384 29.821 112.961 30.5531C113.533 31.2894 114.27 31.862 115.161 32.2792C116.053 32.6964 117.075 32.905 118.225 32.905C119.971 32.905 121.525 32.4878 122.896 31.6534C124.266 30.819 125.346 29.6492 126.139 28.1441H134.708C133.518 31.952 131.415 34.9091 128.401 37.0114C125.387 39.1138 121.775 40.1649 117.57 40.1649C115.19 40.1649 113.038 39.7559 111.116 38.9461C109.19 38.1321 107.607 36.991 106.355 35.5226C105.104 34.0543 104.253 32.2996 103.795 30.2587C103.337 28.2177 103.349 25.9845 103.823 23.5631H103.832ZM138.107 23.2646C138.544 21.1622 139.277 19.2481 140.307 17.522C141.338 15.796 142.618 14.3195 144.144 13.0884C145.669 11.8572 147.416 10.9083 149.379 10.2335C151.342 9.5586 153.432 9.22321 155.657 9.22321C157.719 9.22321 159.592 9.54224 161.281 10.1762C162.966 10.8102 164.406 11.6855 165.596 12.7939C166.787 13.9064 167.707 15.2316 168.361 16.7817C169.016 18.3278 169.343 20.017 169.343 21.8412C169.343 23.784 169.044 25.6491 168.451 27.4365H145.841C145.641 29.183 146.099 30.6309 147.211 31.7802C148.32 32.9295 150.025 33.5062 152.328 33.5062C153.874 33.5062 155.203 33.2076 156.316 32.6146C157.424 32.0174 158.238 31.2648 158.754 30.3527H167.441C166.21 33.4449 164.259 35.858 161.58 37.5841C158.901 39.3101 155.698 40.1731 151.968 40.1731C149.469 40.1731 147.248 39.7559 145.305 38.9256C143.363 38.0912 141.776 36.9337 140.544 35.4449C139.313 33.9561 138.483 32.181 138.045 30.1196C137.608 28.0582 137.628 25.7759 138.107 23.2768V23.2646ZM161.195 22.1357C161.474 20.3892 161.056 18.9127 159.948 17.702C158.835 16.4913 157.248 15.886 155.187 15.886C153.126 15.886 151.289 16.4791 149.8 17.6693C148.312 18.8595 147.33 20.3483 146.856 22.1316H161.195V22.1357ZM179.225 0H187.258L178.096 39.5678H170.063L179.225 0V0ZM192.317 0H200.35L191.188 39.5678H183.155L192.317 0V0Z" fill="white"/>
<path d="M16.4218 24.6304C16.6999 23.1252 17.3748 21.8941 18.4464 20.9411C19.518 19.9881 20.745 19.5137 22.1357 19.5137C23.5263 19.5137 24.5448 20.0208 25.1992 21.0311C25.8536 22.0414 26.0213 23.2439 25.7064 24.6304C25.3873 26.1397 24.7043 27.379 23.6531 28.3483C22.602 29.3218 21.3831 29.8044 19.9925 29.8044C18.6018 29.8044 17.5916 29.2972 16.9576 28.287C16.3236 27.2767 16.1437 26.0538 16.4218 24.6263V24.6304Z" fill="#F9C209"/>
</svg>
