<svg width="219" height="63" viewBox="0 0 219 63" fill="none" xmlns="http://www.w3.org/2000/svg">
<path d="M15.9932 4.54102C20.3103 4.54102 23.9976 6.06978 27.0551 9.13187C30.1172 12.194 31.6459 15.8813 31.6459 20.1937C31.6459 24.5062 30.1172 28.2483 27.0551 31.3058C23.993 34.3679 20.3057 35.8967 15.9932 35.8967H6.5605V42.929L0.290283 45.9318V4.54102H15.9932ZM6.5605 29.631H15.9932C18.567 29.631 20.7757 28.7092 22.6148 26.8701C24.4539 25.031 25.3757 22.8041 25.3757 20.1983C25.3757 17.5926 24.4539 15.4158 22.6148 13.5767C20.7757 11.7376 18.567 10.8158 15.9932 10.8158H6.5605V29.631Z" fill="white"/>
<path d="M40.4307 4.54102V45.9363H34.1605V4.54102H40.4307Z" fill="white"/>
<path d="M69.2809 35.801V13.3213H75.5511V45.9867H69.2809V44.6815C66.7026 46.3517 63.7774 47.1914 60.5008 47.1914C55.9829 47.1914 52.1359 45.6033 48.9598 42.4226C45.7836 39.2464 44.1909 35.3994 44.1909 30.8816V13.3213H50.4611V30.8816C50.4611 33.6561 51.4377 36.0246 53.3955 37.9823C55.3532 39.9401 57.7171 40.9166 60.4962 40.9166C63.2754 40.9166 65.6301 39.9446 67.5696 38.0051C68.2724 37.3024 68.8383 36.5676 69.2764 35.7964L69.2809 35.801Z" fill="white"/>
<path d="M82.4784 39.1647C85.2895 40.3375 87.8816 40.9216 90.2546 40.9216C92.6276 40.9216 94.3937 40.5885 95.6486 39.9176C96.9036 39.2468 97.5288 38.398 97.5288 37.3575C97.5288 36.454 97.2185 35.6782 96.6024 35.0256C95.9818 34.373 95.1558 33.9121 94.1199 33.6474L87.3477 31.8403C84.6689 31.1375 82.5971 29.9327 81.1276 28.226C79.6536 26.5193 78.9189 24.4611 78.9189 22.0562C78.9189 19.3135 80.005 16.9816 82.1818 15.0558C84.354 13.1346 87.1834 12.1397 90.6607 12.0713C95.1421 12.0713 99.2583 13.3764 103.005 15.9868L98.8385 20.7556C96.0958 19.1492 93.4034 18.3461 90.7611 18.3461C89.0863 18.378 87.7492 18.7568 86.7453 19.4733C85.7413 20.1943 85.2393 21.0705 85.2393 22.1064C85.2393 23.0099 85.5816 23.7538 86.2661 24.3379C86.9506 24.922 87.9135 25.4012 89.1502 25.7663L96.1734 27.6738C98.5829 28.3081 100.495 29.4718 101.919 31.1603C103.338 32.8488 104.05 34.948 104.05 37.4579C104.05 40.2371 102.923 42.5508 100.664 44.4081C98.405 46.2654 94.9504 47.1918 90.3048 47.1918C86.4578 47.1918 82.5606 46.1696 78.6132 44.1297L82.4784 39.1601V39.1647Z" fill="white"/>
<path d="M122.619 4.54102C126.936 4.54102 130.623 6.06978 133.681 9.13187C136.743 12.194 138.272 15.8813 138.272 20.1937C138.272 24.5062 136.743 28.2483 133.681 31.3058C130.619 34.3679 126.931 35.8967 122.619 35.8967H113.186V42.929L106.916 45.9318V4.54102H122.619ZM113.186 29.631H122.619C125.193 29.631 127.401 28.7092 129.24 26.8701C131.08 25.031 132.001 22.8041 132.001 20.1983C132.001 17.5926 131.08 15.4158 129.24 13.5767C127.401 11.7376 125.193 10.8158 122.619 10.8158H113.186V29.631Z" fill="white"/>
<path d="M165.867 44.0795C162.955 46.1513 159.61 47.1918 155.832 47.1918C150.981 47.1918 146.842 45.4759 143.415 42.0488C139.987 38.6216 138.272 34.4825 138.272 29.6316C138.272 24.7806 139.987 20.6415 143.415 17.2143C146.842 13.7872 150.981 12.0713 155.832 12.0713C159.61 12.0713 162.955 13.1072 165.867 15.1836V13.3262H172.137V45.9414H165.867V44.0841V44.0795ZM165.867 34.8476V24.4109C165.333 23.407 164.644 22.4897 163.809 21.65C161.6 19.4413 158.94 18.3369 155.832 18.3369C152.724 18.3369 150.064 19.4413 147.855 21.65C145.646 23.8588 144.542 26.5193 144.542 29.627C144.542 32.7347 145.646 35.3952 147.855 37.6039C150.064 39.8127 152.724 40.917 155.832 40.917C158.94 40.917 161.6 39.8127 163.809 37.6039C164.644 36.7688 165.328 35.847 165.867 34.843V34.8476Z" fill="white"/>
<path d="M200.992 44.6815C198.382 46.3517 195.457 47.1914 192.212 47.1914C187.694 47.1914 183.847 45.6033 180.671 42.4226C177.495 39.2464 175.902 35.3994 175.902 30.8816V13.3213H182.172V30.8816C182.172 33.6561 183.149 36.0246 185.107 37.9823C187.064 39.9401 189.428 40.9166 192.207 40.9166C194.987 40.9166 197.36 39.9309 199.331 37.9549C200.002 37.2887 200.549 36.5676 200.988 35.7964V13.3213H207.258V45.2839C207.258 49.966 205.601 53.9636 202.293 57.2767C198.98 60.5898 195 62.2418 190.35 62.2418V55.9716C193.294 55.9716 195.803 54.9356 197.875 52.8593C199.947 50.7829 200.988 48.2593 200.988 45.2839V44.6815H200.992Z" fill="white"/>
<path d="M213.218 0.639648C210.133 0.639648 207.636 3.14043 207.636 6.22078C207.636 9.30113 210.137 11.8019 213.218 11.8019C216.298 11.8019 218.799 9.30113 218.799 6.22078C218.799 3.14043 216.298 0.639648 213.218 0.639648ZM213.218 11.1493C210.498 11.1493 208.289 8.94518 208.289 6.22078C208.289 3.49639 210.493 1.29223 213.218 1.29223C215.942 1.29223 218.146 3.49639 218.146 6.22078C218.146 8.94518 215.942 11.1493 213.218 11.1493Z" fill="white"/>
<path d="M213.505 6.72708H212.615V8.02768H212.004V4.18066H213.546C214.404 4.18066 215.029 4.67808 215.029 5.45387C215.029 6.02431 214.691 6.44871 214.171 6.63125L215.248 8.02768H214.5L213.505 6.72708ZM212.615 6.16578H213.528C214.043 6.16578 214.431 5.89653 214.431 5.45387C214.431 5.01122 214.039 4.74197 213.528 4.74197H212.615V6.16578Z" fill="white"/>
</svg>
