<svg width="117" height="117" viewBox="0 0 117 117" fill="none" xmlns="http://www.w3.org/2000/svg">
<path d="M107.925 27.3366C103.549 20.553 98.2758 15.0589 92.1047 10.7421C85.9336 6.42532 78.8648 3.34188 70.9546 1.54789C57.9392 -1.42342 45.3165 -0.0779257 33.1425 5.24801C26.4104 8.21931 20.4637 12.3119 15.3024 17.5257C8.96303 24.0289 4.36275 31.3731 1.5577 39.6143C1.5577 39.6703 1.5016 39.7825 1.5016 39.8385C1.3894 40.1188 1.3333 40.3992 1.2211 40.7355C-1.69615 50.2101 0.996692 55.4239 5.26037 51.051C5.42867 50.8828 5.59697 50.6586 5.76527 50.4904C5.82137 50.4343 5.87748 50.3222 5.93358 50.2661C10.9266 44.0993 18.8368 38.9976 18.8368 38.9976C20.8564 37.596 22.9322 36.3066 25.1201 35.1293C27.5885 33.6717 30.2253 32.3822 32.6376 31.4852C32.6376 31.4852 34.8817 30.4761 35.4988 27.3927C35.4988 27.3366 35.4988 27.2805 35.5549 27.2245C35.5549 27.1684 35.5549 27.1684 35.5549 27.1124C35.9476 24.5335 38.7526 17.4696 46.6629 17.0211C49.1313 16.6847 51.5998 17.1332 53.7877 18.1424C57.6026 19.9364 60.5198 23.5244 61.1369 27.8412C61.5857 31.261 60.8003 34.5126 59.0051 37.0354C58.8929 37.2036 58.7807 37.3157 58.6685 37.4839C58.6124 37.54 58.6124 37.596 58.5563 37.596C57.0977 39.5022 55.0219 40.9598 52.6096 41.8007C51.0949 42.3053 49.6362 42.5856 48.2337 42.5856C47.3361 42.6977 46.3824 42.5856 45.3726 42.3613C44.2505 42.1371 43.2407 41.7446 42.3431 41.2962C40.8284 40.5673 39.5942 39.7825 39.1453 39.39C38.8087 39.0537 38.416 38.8855 38.0233 38.7733C37.1818 38.6612 36.5086 38.7733 36.0037 38.9976C35.7232 39.1097 35.4988 39.2779 35.3305 39.39C33.423 40.9598 31.6278 42.5856 29.9448 44.2675C25.4567 48.9206 21.6979 54.1905 19.9027 56.7694C18.949 58.227 18.0514 59.7407 17.266 61.3104C16.4806 62.7681 15.7512 64.2257 15.078 65.6833C14.0121 67.9819 13.0584 70.5047 12.1608 73.1957C12.1047 73.3078 12.1047 73.4199 12.0486 73.5881C11.9925 73.7563 11.9364 73.9245 11.8803 74.0927C11.8242 74.2609 11.7681 74.429 11.712 74.5972C6.27018 92.9296 16.0879 103.525 24.2786 92.4811C24.7274 91.7523 25.1762 91.0796 25.6811 90.4068C34.2646 75.7185 51.9364 65.1787 51.9364 65.1787C53.0023 64.506 54.1243 63.8332 55.1902 63.2166C55.1902 63.2166 55.2463 63.1605 55.4146 63.1044C58.4441 61.4226 61.5296 59.8528 64.7274 58.5073C67.5885 57.2739 70.618 56.0966 73.0864 55.4799C73.0864 55.4799 76.0037 54.7511 76.7891 51.1631C77.3501 48.5843 79.2575 44.8841 83.4651 42.8659C84.4749 42.3613 85.4847 41.9689 86.5507 41.7446C87.6727 41.5204 88.8508 41.4083 89.9167 41.4643C90.646 41.4643 91.2632 41.5204 91.7681 41.6886C97.1537 42.6977 101.586 47.0706 102.203 52.7889C102.988 59.7407 98.0514 66.0197 91.0387 66.9167C87.5605 67.3652 84.3627 66.5803 81.6699 64.5621C78.6404 63.3287 76.2842 64.1136 75.4427 64.506C72.8059 65.9076 70.2253 67.5334 67.8129 69.2152C63.2688 72.5229 59.6783 75.9988 58.2758 77.4004C55.1341 80.5959 52.3852 83.9597 49.9728 87.5476C49.8606 87.7158 49.6923 87.9401 49.5801 88.1643C49.524 88.2204 49.524 88.2765 49.4679 88.3325C46.9995 92.2008 44.3627 97.1904 42.1748 103.189C42.0065 103.638 41.8382 104.142 41.6699 104.591C39.3698 112.271 44.3627 115.355 50.1972 116.476C50.1972 116.476 54.7414 117.317 61.3052 116.868C61.6979 116.812 62.0345 116.812 62.315 116.756C63.942 116.532 65.625 116.364 67.2519 116.083C78.5282 114.177 88.5142 109.524 97.0415 102.012C107.757 92.5372 114.265 80.652 116.228 66.6364C118.528 52.5647 115.667 39.39 107.925 27.3366Z" fill="#FFC828"/>
</svg>
