<svg width="117" height="117" viewBox="0 0 117 117" fill="none" xmlns="http://www.w3.org/2000/svg">
<path d="M23.2412 17.3306C24.6765 15.6622 25.5455 13.5025 25.5455 11.1444C25.5455 5.87509 21.2149 1.58813 15.8919 1.58813C10.5688 1.58813 6.23825 5.87509 6.23825 11.1444C6.23825 13.5025 7.10729 15.6622 8.5426 17.3306C3.67087 19.2065 0.228516 23.9495 0.228516 29.4019V35.4334C0.228516 36.8593 1.38869 38.0195 2.81463 38.0195H28.9692C30.3951 38.0195 31.5553 36.8593 31.5553 35.4334V29.4019C31.555 23.9495 28.1127 19.2065 23.2412 17.3306ZM15.8919 5.01587C19.3247 5.01587 22.1178 7.76514 22.1178 11.1444C22.1178 14.5237 19.3247 17.2728 15.8919 17.2728C12.4591 17.2728 9.66598 14.5237 9.66598 11.1444C9.66598 7.76514 12.4589 5.01587 15.8919 5.01587ZM28.1273 34.5917H3.65625V29.4019C3.65625 24.5501 7.36574 20.4631 12.1584 19.9564C13.3076 20.4354 14.569 20.7007 15.8919 20.7007C17.2148 20.7007 18.4764 20.4354 19.6254 19.9564C24.4178 20.4631 28.1273 24.5501 28.1273 29.4019V34.5917ZM39.2172 38.0195H65.3715C66.7974 38.0195 67.9576 36.8593 67.9576 35.4334V29.4019C67.9576 23.9495 64.5152 19.2065 59.6437 17.3306C61.079 15.6622 61.9481 13.5025 61.9481 11.1444C61.9481 5.87509 57.6175 1.58813 52.2944 1.58813C46.9714 1.58813 42.6406 5.87509 42.6406 11.1444C42.6406 13.5025 43.5096 15.6622 44.9449 17.3306C40.0734 19.2065 36.6308 23.9498 36.6308 29.4019V35.4334C36.6311 36.8593 37.791 38.0195 39.2172 38.0195ZM52.2944 5.01587C55.7274 5.01587 58.5203 7.76514 58.5203 11.1444C58.5203 14.5237 55.7274 17.273 52.2944 17.273C48.8614 17.273 46.0683 14.5237 46.0683 11.1444C46.0683 7.76514 48.8612 5.01587 52.2944 5.01587ZM40.0588 29.4019C40.0588 24.5501 43.7683 20.4631 48.5607 19.9564C49.7099 20.4354 50.9713 20.7007 52.2944 20.7007C53.6175 20.7007 54.8789 20.4354 56.0281 19.9564C60.8203 20.4631 64.5301 24.5501 64.5301 29.4019V34.5917H40.0588V29.4019ZM75.6197 38.0195H101.774C103.2 38.0195 104.36 36.8593 104.36 35.4334V29.4019C104.36 23.9498 100.918 19.2065 96.0463 17.3306C97.4816 15.6622 98.3506 13.5025 98.3506 11.1444C98.3506 5.87509 94.02 1.58813 88.697 1.58813C83.3739 1.58813 79.0431 5.87509 79.0431 11.1444C79.0431 13.5025 79.9121 15.6622 81.3475 17.3306C76.476 19.2065 73.0334 23.9498 73.0334 29.4019V35.4334C73.0336 36.8593 74.1935 38.0195 75.6197 38.0195ZM88.697 5.01587C92.13 5.01587 94.9229 7.76514 94.9229 11.1444C94.9229 14.5237 92.13 17.273 88.697 17.273C85.264 17.273 82.4708 14.5237 82.4708 11.1444C82.4708 7.76514 85.2638 5.01587 88.697 5.01587ZM76.4613 29.4019C76.4613 24.5501 80.1708 20.4631 84.9632 19.9564C86.1125 20.4354 87.3739 20.7007 88.697 20.7007C90.0201 20.7007 91.2815 20.4354 92.4305 19.9564C97.2229 20.4631 100.932 24.5501 100.932 29.4019V34.5917H76.4613V29.4019ZM23.2412 58.5029C24.6765 56.8345 25.5455 54.6748 25.5455 52.3168C25.5455 47.0474 21.2149 42.7605 15.8919 42.7605C10.5688 42.7605 6.23825 47.0474 6.23825 52.3168C6.23825 54.6748 7.10729 56.8345 8.5426 58.5029C3.6711 60.3788 0.228516 65.1221 0.228516 70.5743V76.6059C0.228516 78.0319 1.38869 79.192 2.81463 79.192H28.9692C30.3951 79.192 31.5553 78.0319 31.5553 76.6059V70.5743C31.555 65.1221 28.1127 60.3788 23.2412 58.5029ZM15.8919 46.1882C19.3247 46.1882 22.1178 48.9375 22.1178 52.3168C22.1178 55.6961 19.3249 58.4451 15.8919 58.4451C12.4589 58.4451 9.66598 55.6958 9.66598 52.3168C9.66598 48.9375 12.4589 46.1882 15.8919 46.1882ZM28.1273 75.7641H3.65625V70.5743C3.65625 65.7224 7.36597 61.6354 12.1584 61.1288C13.3076 61.6078 14.569 61.8731 15.8919 61.8731C17.2148 61.8731 18.4764 61.6078 19.6254 61.1288C24.4178 61.6354 28.1273 65.7224 28.1273 70.5743V75.7641ZM88.697 40.4753C76.2968 40.4753 65.7501 48.557 62.0434 59.7291C61.2861 59.2371 60.481 58.8279 59.6419 58.505C61.0783 56.8364 61.9481 54.6757 61.9481 52.3168C61.9481 47.0474 57.6175 42.7605 52.2944 42.7605C46.9714 42.7605 42.6406 47.0474 42.6406 52.3168C42.6406 54.6748 43.5096 56.8345 44.9449 58.5029C40.0734 60.379 36.6308 65.1221 36.6308 70.5743V76.6059C36.6308 78.0319 37.791 79.192 39.2169 79.192H62.7106C63.2703 80.5576 63.9362 81.8826 64.7122 83.1536L43.7269 104.143C43.7164 104.153 43.7059 104.164 43.6958 104.175C41.2192 106.785 41.253 110.957 43.7717 113.476C45.0628 114.767 46.7598 115.412 48.4581 115.412C50.156 115.412 51.8555 114.767 53.1498 113.476C53.1502 113.476 53.1509 113.475 53.1514 113.474L74.0932 92.5351C78.4826 95.2153 83.5017 96.625 88.6967 96.625C104.177 96.625 116.771 84.0308 116.771 68.5503C116.771 53.0695 104.177 40.4753 88.697 40.4753ZM52.2944 46.1882C55.7274 46.1882 58.5203 48.9375 58.5203 52.3168C58.5203 55.6961 55.7274 58.4451 52.2944 58.4451C48.8614 58.4451 46.0683 55.6958 46.0683 52.3168C46.0683 48.9375 48.8612 46.1882 52.2944 46.1882ZM40.0588 75.7641V70.5743C40.0588 65.7224 43.7685 61.6354 48.5607 61.1288C49.7099 61.6078 50.9713 61.8731 52.2944 61.8731C53.6178 61.8731 54.8794 61.6078 56.0288 61.1286C57.8992 61.3274 59.6695 62.0838 61.117 63.2985C60.7936 65.0005 60.6222 66.7555 60.6222 68.5503C60.6222 71.0109 60.9424 73.4309 61.5603 75.7645H40.0588V75.7641ZM88.697 93.1968C83.7144 93.1968 78.9179 91.7209 74.8261 88.9284C74.1456 88.4641 73.231 88.5495 72.6481 89.132L50.7277 111.05C49.475 112.298 47.4421 112.298 46.1956 111.051C44.9835 109.839 44.973 107.824 46.1684 106.549L68.1148 84.598C68.6973 84.0153 68.7827 83.1008 68.3184 82.4203C65.5262 78.3285 64.0502 73.5322 64.0502 68.5496C64.0502 54.9593 75.1067 43.9028 88.697 43.9028C102.287 43.9028 113.344 54.9596 113.344 68.5498C113.344 82.1403 102.287 93.1968 88.697 93.1968ZM104.016 53.2313C99.9242 49.1399 94.4839 46.8868 88.6967 46.887C88.6965 46.887 88.6967 46.887 88.6963 46.887C82.9096 46.887 77.4691 49.1402 73.378 53.2313C69.2866 57.3224 67.0335 62.7629 67.0337 68.5501C67.0337 74.3372 69.2866 79.7775 73.378 83.8688C77.4691 87.9602 82.9096 90.2133 88.6967 90.2131H88.6972C94.4839 90.2131 99.9244 87.9599 104.016 83.8688C108.107 79.7777 110.36 74.3374 110.36 68.5501C110.36 62.7627 108.107 57.3224 104.016 53.2313ZM88.697 86.7852C84.6417 86.7852 80.7915 85.4668 77.6277 83.04C78.7385 79.7766 81.6786 77.3863 85.1349 77.0102C86.232 77.4647 87.4353 77.7167 88.697 77.7167C89.9586 77.7167 91.162 77.4647 92.2591 77.0102C95.7154 77.3863 98.6555 79.7766 99.7663 83.04C96.6022 85.4671 92.752 86.7854 88.697 86.7852ZM88.697 74.289C85.4815 74.289 82.8655 71.7143 82.8655 68.5498C82.8655 65.3853 85.4815 62.8109 88.697 62.8109C91.9124 62.8109 94.5285 65.3853 94.5285 68.5498C94.5285 71.7145 91.9124 74.289 88.697 74.289ZM102.435 80.5366C101.076 77.7375 98.697 75.5401 95.8219 74.3973C97.1539 72.8091 97.9562 70.7708 97.9562 68.5498C97.9562 63.4953 93.8025 59.3832 88.697 59.3832C83.5915 59.3832 79.4377 63.4953 79.4377 68.5498C79.4377 70.7705 80.2401 72.8091 81.5721 74.3973C78.6969 75.5401 76.3178 77.7375 74.9591 80.5364C72.0528 77.2147 70.4617 73.0059 70.4619 68.5501C70.4619 63.6786 72.3583 59.0989 75.8023 55.6552C79.2462 52.2114 83.8257 50.3147 88.6972 50.3147C93.5687 50.3147 98.1481 52.2112 101.592 55.6552C105.036 59.0989 106.933 63.6786 106.933 68.5501C106.932 73.0059 105.341 77.2149 102.435 80.5366Z" fill="#0348AC"/>
</svg>
