<svg width="316" height="317" viewBox="0 0 316 317" fill="none" xmlns="http://www.w3.org/2000/svg">
<ellipse cx="158" cy="158.5" rx="158" ry="158.5" fill="#41CD42"/>
<path d="M108 175L125.233 187.925C125.662 188.246 126.268 188.173 126.607 187.758L166.5 139" stroke="white" stroke-width="10" stroke-linecap="round"/>
<path fill-rule="evenodd" clip-rule="evenodd" d="M201.869 142.166C203.618 140.029 203.303 136.879 201.166 135.13C199.028 133.382 195.878 133.697 194.13 135.834L156.761 181.506L141.251 169.098L134.918 176.838L153.604 191.787C156.171 193.84 159.913 193.445 161.996 190.901L201.869 142.166ZM130.524 172.733L136.302 165.671C134.441 165.17 132.376 165.775 131.095 167.377C129.839 168.947 129.683 171.043 130.524 172.733Z" fill="white"/>
</svg>
