<svg width="316" height="317" viewBox="0 0 316 317" fill="none" xmlns="http://www.w3.org/2000/svg">
<ellipse cx="158" cy="158.5" rx="158" ry="158.5" fill="#E60000"/>
<g clip-path="url(#clip0_33_20)">
<path d="M210.771 173.114C209.907 170.95 207.453 169.896 205.289 170.76C203.126 171.624 202.072 174.078 202.935 176.241C204.034 178.993 203.673 182.134 201.972 184.645C200.27 187.157 197.544 188.598 194.494 188.598H121.522C118.195 188.598 115.241 186.862 113.619 183.954C111.995 181.041 112.071 177.609 113.823 174.772L150.31 115.698C151.971 113.008 154.849 111.402 158.008 111.402C161.168 111.402 164.045 113.008 165.707 115.698L192.691 159.388C193.916 161.37 196.515 161.985 198.497 160.76C200.479 159.536 201.094 156.937 199.869 154.955L172.884 111.264C169.675 106.068 164.114 102.965 158.008 102.965C151.902 102.965 146.341 106.068 143.132 111.264L106.645 170.338C103.263 175.816 103.115 182.442 106.251 188.064C109.384 193.681 115.093 197.035 121.522 197.035H194.494C200.388 197.035 205.659 194.243 208.956 189.377C212.229 184.547 212.907 178.467 210.771 173.114Z" fill="white"/>
<path d="M158.01 180.372C160.34 180.372 162.228 178.484 162.228 176.154C162.228 173.824 160.34 171.936 158.01 171.936H158.008C155.678 171.936 153.791 173.824 153.791 176.154C153.791 178.484 155.68 180.372 158.01 180.372Z" fill="white"/>
<path d="M162.227 161.39V130.385C162.227 128.055 160.338 126.166 158.008 126.166C155.679 126.166 153.79 128.055 153.79 130.385V161.39C153.79 163.719 155.679 165.608 158.008 165.608C160.338 165.608 162.227 163.719 162.227 161.39Z" fill="white"/>
</g>
<defs>
<clipPath id="clip0_33_20">
<rect width="108" height="108" fill="white" transform="translate(104 96)"/>
</clipPath>
</defs>
</svg>
