<svg width="328" height="328" viewBox="0 0 328 328" fill="none" xmlns="http://www.w3.org/2000/svg">
<path d="M164 0C73.4284 0 0 73.4028 0 164C0 254.597 73.4284 328 164 328C254.572 328 328 254.552 328 164C328 73.4477 254.572 0 164 0Z" fill="#FFA80F"/>
<path d="M0.000152303 164C-0.0368689 191.107 6.67592 217.798 19.5328 241.663C35.9128 246.472 52.8978 248.908 69.9692 248.895C168.561 248.895 248.486 168.971 248.486 70.3788C248.5 53.0367 245.988 35.785 241.029 19.1672C217.32 6.53874 190.862 -0.0449947 164 -0.000261846C73.4286 -0.000261846 0.000152303 73.4026 0.000152303 164Z" fill="#FDBB48"/>
</svg>
