<svg width="328" height="328" viewBox="0 0 328 328" fill="none" xmlns="http://www.w3.org/2000/svg">
<path d="M164 0C73.4284 0 0 73.4028 0 164C0 254.597 73.4284 328 164 328C254.572 328 328 254.552 328 164C328 73.4477 254.572 0 164 0Z" fill="#0042C7"/>
<path d="M0.000152303 164C-0.0368689 191.107 6.67592 217.798 19.5328 241.663C35.9128 246.472 52.8978 248.908 69.9692 248.895C168.561 248.895 248.486 168.971 248.486 70.3788C248.5 53.0367 245.988 35.785 241.029 19.1672C217.32 6.53874 190.862 -0.0449947 164 -0.000261846C73.4286 -0.000261846 0.000152303 73.4026 0.000152303 164Z" fill="#235ED6"/>
<path d="M257.531 136.824L158.958 240.343C156.272 243.161 153.045 245.408 149.469 246.949C145.894 248.49 142.044 249.294 138.151 249.312H138.023C134.151 249.313 130.319 248.536 126.753 247.027C123.188 245.518 119.962 243.308 117.267 240.529L64.9596 186.652C62.2569 183.939 60.12 180.717 58.6729 177.171C57.2257 173.626 56.4971 169.828 56.5293 165.999C56.5616 162.17 57.3541 158.385 58.8608 154.865C60.3675 151.344 62.5584 148.158 65.3064 145.491C68.0543 142.824 71.3046 140.73 74.8686 139.329C78.4326 137.928 82.2393 137.249 86.0678 137.332C89.8962 137.414 93.6703 138.256 97.1707 139.808C100.671 141.361 103.828 143.593 106.459 146.376L137.818 178.676L215.647 96.9454C218.255 94.1498 221.39 91.8988 224.873 90.3227C228.356 88.7467 232.116 87.8767 235.937 87.7632C239.758 87.6498 243.564 88.295 247.134 89.6616C250.704 91.0283 253.968 93.0892 256.736 95.7252C259.505 98.3611 261.723 101.52 263.263 105.019C264.803 108.517 265.634 112.287 265.708 116.109C265.782 119.931 265.097 123.73 263.694 127.285C262.29 130.841 260.196 134.083 257.531 136.824Z" fill="white"/>
</svg>
