<svg width="117" height="117" viewBox="0 0 117 117" fill="none" xmlns="http://www.w3.org/2000/svg">
<path d="M78.3994 55.9132C77.1402 55.9132 76.1142 56.937 76.1142 58.1961V62.8441C76.1119 64.3203 74.9053 65.5223 73.4246 65.5246C71.9438 65.5223 70.7372 64.3203 70.7349 62.8441V42.9838C70.7349 42.3828 70.4904 41.7932 70.0654 41.3682C69.6404 40.9431 69.0508 40.6986 68.4498 40.6986C67.8488 40.6986 67.2592 40.9431 66.8342 41.3682C66.4091 41.7932 66.1646 42.3828 66.1646 42.9838V60.5589H50.8358V42.9838C50.8358 42.3828 50.5913 41.7932 50.1663 41.3682C49.7412 40.9431 49.1516 40.6986 48.5506 40.6986C47.9497 40.6986 47.3601 40.9431 46.935 41.3682C46.51 41.7932 46.2655 42.3828 46.2655 42.9838V62.8441C46.2632 64.3203 45.0566 65.5223 43.5759 65.5246C42.0951 65.5223 40.8885 64.3203 40.8862 62.8441V38.0181C40.8885 35.9798 41.6838 34.0603 43.1303 32.6138C44.579 31.1695 46.5054 30.3743 48.5506 30.372H68.4544C72.5905 30.372 75.952 33.5987 76.1073 37.7188C76.1302 38.3129 76.3793 38.8682 76.8089 39.2796C77.2591 39.7114 77.8509 39.9422 78.4793 39.9148C79.0895 39.8897 79.6539 39.6315 80.0675 39.1836C80.4834 38.7357 80.6982 38.153 80.6754 37.5428C80.552 34.3779 79.2266 31.4232 76.9414 29.2226C74.6494 27.0174 71.6353 25.804 68.4498 25.8017H65.0458C65.3068 25.3872 65.5595 24.9471 65.8029 24.4804C67.288 21.6331 68.2475 18.1766 68.2475 15.6746C68.2475 10.3077 63.8749 5.94141 58.5002 5.94141C53.1255 5.94141 48.7529 10.3077 48.7529 15.6746C48.7529 18.1766 49.7124 21.6331 51.1975 24.4804C51.4409 24.9471 51.6939 25.3874 51.9546 25.8017H48.5506C46.8985 25.804 45.2989 26.1262 43.7907 26.7615C42.3327 27.3785 41.0256 28.2582 39.9013 29.3803C38.777 30.5 37.895 31.8071 37.278 33.2627C36.6404 34.7687 36.3159 36.3683 36.3159 38.0181V62.8441C36.3159 64.7819 37.0723 66.6032 38.4434 67.972C39.8145 69.3408 41.638 70.0949 43.5759 70.0949C44.5103 70.0949 45.4179 69.9169 46.2655 69.5784V102.567C46.2655 106.565 49.5223 109.818 53.5254 109.818C55.4488 109.818 57.2 109.067 58.5002 107.843C59.8005 109.067 61.5516 109.818 63.475 109.818C67.4781 109.818 70.7349 106.565 70.7349 102.567V69.5784C71.5827 69.9169 72.4904 70.0949 73.4248 70.0949C75.3626 70.0949 77.1862 69.3408 78.5573 67.972C79.9284 66.6032 80.6847 64.7819 80.6847 62.8441V58.1961C80.6845 56.937 79.6585 55.9132 78.3994 55.9132ZM55.2498 22.3669C53.9262 19.829 53.3232 17.1186 53.3232 15.6746C53.3232 12.8277 55.6456 10.5117 58.5002 10.5117C61.3548 10.5117 63.6772 12.8277 63.6772 15.6746C63.6772 19.5495 60.494 25.7825 58.5096 25.8017H58.4899C57.7623 25.7921 56.4822 24.7295 55.2498 22.3669ZM66.1646 102.567C66.1646 104.045 64.9581 105.247 63.475 105.247C61.9919 105.247 60.7854 104.045 60.7854 102.567V72.7751C60.7854 71.513 59.7623 70.49 58.5002 70.49C57.2381 70.49 56.2151 71.513 56.2151 72.7751V102.567C56.2151 104.045 55.0085 105.247 53.5254 105.247C52.0424 105.247 50.8358 104.045 50.8358 102.567V65.1297H66.1646V102.567Z" fill="#0348AC"/>
<path d="M78.3989 50.198C79.661 50.198 80.6841 49.1749 80.6841 47.9128C80.6841 46.6508 79.661 45.6277 78.3989 45.6277C77.1369 45.6277 76.1138 46.6508 76.1138 47.9128C76.1138 49.1749 77.1369 50.198 78.3989 50.198Z" fill="#0348AC"/>
<path d="M28.6514 25.8025C27.3893 25.8025 26.3663 26.8256 26.3663 28.0877V32.5087L9.12317 15.2983C8.22967 14.4064 6.78294 14.408 5.8915 15.3013C4.99983 16.1946 5.0012 17.6415 5.89447 18.533L23.1273 35.7329H18.7019C17.4398 35.7329 16.4167 36.7559 16.4167 38.018C16.4167 39.2801 17.4398 40.3032 18.7019 40.3032H28.6514C29.9135 40.3032 30.9366 39.2801 30.9366 38.018V28.0874C30.9366 26.8256 29.9135 25.8025 28.6514 25.8025Z" fill="#0348AC"/>
<path d="M28.6512 85.3857H18.7016C17.4395 85.3857 16.4164 86.4088 16.4164 87.6709C16.4164 88.933 17.4395 89.9561 18.7016 89.9561H23.1268L5.89398 107.156C5.00071 108.047 4.99934 109.494 5.89101 110.388C6.3373 110.835 6.92276 111.059 7.50845 111.059C8.09253 111.059 8.67662 110.836 9.12268 110.391L26.366 93.1804V97.6015C26.366 98.8636 27.3891 99.8867 28.6512 99.8867C29.9133 99.8867 30.9363 98.8636 30.9363 97.6015V87.6709C30.9363 86.4088 29.9133 85.3857 28.6512 85.3857Z" fill="#0348AC"/>
<path d="M23.2304 54.2053C22.3369 53.3134 20.8902 53.315 19.9988 54.2083C19.1071 55.1015 19.1085 56.5485 20.0017 57.4399L23.1272 60.5594H2.28516C1.02306 60.5594 0 61.5825 0 62.8446C0 64.1067 1.02306 65.1297 2.28516 65.1297H23.1272L20.0017 68.2492C19.1085 69.1406 19.1071 70.5876 19.9988 71.4809C20.4451 71.9281 21.0305 72.1518 21.6162 72.1518C22.2003 72.1518 22.7844 71.9292 23.2304 71.4841L30.2658 64.462C30.6951 64.0333 30.9367 63.4515 30.9367 62.8446C30.9367 62.2376 30.6954 61.6558 30.2658 61.2271L23.2304 54.2053Z" fill="#0348AC"/>
<path d="M88.3486 40.3036H98.2982C99.5603 40.3036 100.583 39.2805 100.583 38.0184C100.583 36.7563 99.5603 35.7333 98.2982 35.7333H93.873L111.106 18.5334C111.999 17.6419 112 16.195 111.109 15.3017C110.217 14.4084 108.771 14.4071 107.877 15.2987L90.6338 32.5092V28.0881C90.6338 26.826 89.6107 25.8029 88.3486 25.8029C87.0865 25.8029 86.0635 26.826 86.0635 28.0881V38.0187C86.0635 39.2805 87.0865 40.3036 88.3486 40.3036Z" fill="#0348AC"/>
<path d="M114.715 60.5593H93.873L96.9984 57.4399C97.8917 56.5484 97.893 55.1015 97.0014 54.2082C96.1099 53.3149 94.6632 53.3136 93.7697 54.2052L86.7344 61.2273C86.305 61.656 86.0635 62.2378 86.0635 62.8447C86.0635 63.4516 86.3048 64.0335 86.7344 64.4621L93.7697 71.4842C94.2158 71.9296 94.7999 72.1519 95.3839 72.1519C95.9694 72.1519 96.5551 71.9282 97.0014 71.481C97.893 70.5877 97.8917 69.1408 96.9984 68.2493L93.873 65.1299H114.715C115.977 65.1299 117 64.1068 117 62.8447C117 61.5826 115.977 60.5593 114.715 60.5593Z" fill="#0348AC"/>
<path d="M93.873 89.9561H98.2982C99.5603 89.9561 100.583 88.933 100.583 87.6709C100.583 86.4088 99.5603 85.3857 98.2982 85.3857H88.3486C87.0865 85.3857 86.0635 86.4088 86.0635 87.6709V97.6015C86.0635 98.8636 87.0865 99.8867 88.3486 99.8867C89.6107 99.8867 90.6338 98.8636 90.6338 97.6015V93.1804L107.877 110.391C108.323 110.836 108.907 111.059 109.491 111.059C110.077 111.059 110.663 110.835 111.109 110.388C112 109.494 111.999 108.047 111.106 107.156L93.873 89.9561Z" fill="#0348AC"/>
</svg>
