<svg width="71" height="72" viewBox="0 0 71 72" fill="none" xmlns="http://www.w3.org/2000/svg">
<path d="M35.3333 68.6667L2.6797 27.8496C2.34718 27.434 2.18092 27.2262 2.13625 26.9757C2.09159 26.7252 2.17575 26.4728 2.34407 25.9678L9.42164 4.73509C9.86165 3.41505 10.0817 2.75503 10.6054 2.37752C11.1292 2 11.8249 2 13.2164 2H57.4503C58.8417 2 59.5375 2 60.0612 2.37752C60.585 2.75503 60.805 3.41505 61.245 4.73509L68.3226 25.9678C68.4909 26.4728 68.5751 26.7252 68.5304 26.9757C68.4857 27.2262 68.3195 27.434 67.987 27.8496L35.3333 68.6667ZM35.3333 68.6667L49.9167 22.8333M35.3333 68.6667L20.75 22.8333M66.5833 27L49.9167 22.8333M49.9167 22.8333L43.6667 6.16667M49.9167 22.8333H20.75M27 6.16667L20.75 22.8333M20.75 22.8333L4.08333 27" stroke="#0348AC" stroke-width="4" stroke-linecap="round"/>
</svg>
