<svg width="105" height="105" viewBox="0 0 105 105" fill="none" xmlns="http://www.w3.org/2000/svg">
<path d="M43.75 91.875C41.125 91.875 39.375 90.125 39.375 87.5V21.875C39.375 19.25 41.125 17.5 43.75 17.5C46.375 17.5 48.125 19.25 48.125 21.875V82.6875C53.375 81.8125 58.1875 79.1875 62.125 75.25C66.9375 70.4375 70 63.875 70 56.875C70 54.25 71.75 52.5 74.375 52.5C77 52.5 78.75 54.25 78.75 56.875C78.75 66.0625 75.25 74.8125 68.6875 81.8125C61.6875 88.375 52.9375 91.875 43.75 91.875Z" fill="#0348AC"/>
<path d="M26.25 70C24.5 70 23.1875 69.125 22.3125 67.375C21.4375 65.1875 22.3125 62.5625 24.0625 61.6875L59.0625 44.1875C61.25 43.3125 63.875 44.1875 64.75 45.9375C65.625 48.125 64.75 50.75 63 51.625L28 69.125C27.5625 70 27.125 70 26.25 70Z" fill="#0348AC"/>
<path d="M26.25 52.5C24.5 52.5 23.1875 51.625 22.3125 49.875C21.4375 47.6875 22.3125 45.0625 24.0625 44.1875L59.0625 26.6875C61.25 25.8125 63.875 26.6875 64.75 28.4375C65.625 30.1875 64.75 33.25 63 34.125L28 51.625C27.5625 52.5 27.125 52.5 26.25 52.5Z" fill="#0348AC"/>
</svg>
