<svg width="75" height="75" viewBox="0 0 75 75" fill="none" xmlns="http://www.w3.org/2000/svg">
<path d="M68.2261 3.23795C67.968 3.07869 67.6707 2.99393 67.3676 2.99393H18.4118C14.203 2.99393 10.7789 6.38462 10.7789 10.5401L10.4912 52.6984H1.64397C0.735934 52.6984 0 53.4343 0 54.3424V61.9374C0.00577958 67.5147 4.52542 72.0344 10.1027 72.0408C10.2157 72.0408 10.3294 72.0292 10.4405 72.0061H51.2862C51.5295 72.0234 51.7749 72.035 52.0221 72.035C57.6861 72.0247 62.2725 67.4319 62.2745 61.7679V37.1237H73.3559C74.2639 37.1237 74.9998 36.3878 74.9998 35.4797V11.0757C74.9799 7.15138 72.1062 3.82555 68.2261 3.23795ZM3.28795 61.938V55.987H41.7697V61.7685C41.7678 64.3443 42.7369 66.8257 44.4842 68.7182H9.87796C9.80026 68.7188 9.7232 68.7246 9.64678 68.7361C6.0705 68.4927 3.29244 65.5227 3.28795 61.938ZM58.9865 11.0757V61.7679C58.9833 63.6058 58.2531 65.3666 56.9553 66.667C55.7127 67.9418 54.0244 68.686 52.2456 68.7426C52.157 68.7271 52.0671 68.7194 51.9765 68.7188H51.3985C47.8178 68.3662 45.0815 65.3673 45.0577 61.7692V54.3424C45.0577 53.435 44.3218 52.6984 43.4137 52.6984H13.7792L14.0669 10.5517C14.0906 8.17437 16.0339 6.26389 18.4118 6.28187H60.6196C59.5606 7.65549 58.9859 9.3412 58.9865 11.0757ZM71.7119 33.8358H62.2745V11.0757C62.3175 8.49995 64.4174 6.43535 66.9932 6.43535C69.5689 6.43535 71.6689 8.49995 71.7119 11.0757V33.8358Z" fill="#0348AC"/>
<path d="M21.1069 20.8041H36.6771C37.5851 20.8041 38.3211 20.0681 38.3211 19.1601C38.3211 18.252 37.5851 17.5161 36.6771 17.5161H21.1069C20.1988 17.5161 19.4629 18.252 19.4629 19.1601C19.4629 20.0681 20.1988 20.8041 21.1069 20.8041Z" fill="#0348AC"/>
<path d="M50.1512 29.2705H21.1069C20.1988 29.2705 19.4629 30.0064 19.4629 30.9145C19.4629 31.8219 20.1988 32.5585 21.1069 32.5585H50.1512C51.0593 32.5585 51.7952 31.8219 51.7952 30.9145C51.7952 30.0064 51.0593 29.2705 50.1512 29.2705Z" fill="#0348AC"/>
<path d="M50.1512 41.0243H21.1069C20.1988 41.0243 19.4629 41.7608 19.4629 42.6682C19.4629 43.5763 20.1988 44.3122 21.1069 44.3122H50.1512C51.0593 44.3122 51.7952 43.5763 51.7952 42.6682C51.7952 41.7608 51.0593 41.0243 50.1512 41.0243Z" fill="#0348AC"/>
</svg>
