<svg width="100" height="100" viewBox="0 0 100 100" fill="none" xmlns="http://www.w3.org/2000/svg">
<path d="M33.3335 33.3333L33.3335 29.1667C33.3335 19.9619 40.7954 12.5 50.0002 12.5V12.5C59.2049 12.5 66.6668 19.9619 66.6668 29.1667L66.6668 33.3333" stroke="#0348AC" stroke-width="4" stroke-linecap="round"/>
<path d="M62.5 58.3333V50" stroke="#0348AC" stroke-width="4" stroke-linecap="round"/>
<path d="M37.5 58.3333V50" stroke="#0348AC" stroke-width="4" stroke-linecap="round"/>
<path d="M16.6665 37.3333C16.6665 35.4477 16.6665 34.5049 17.2523 33.9191C17.8381 33.3333 18.7809 33.3333 20.6665 33.3333H79.3332C81.2188 33.3333 82.1616 33.3333 82.7474 33.9191C83.3332 34.5049 83.3332 35.4477 83.3332 37.3333V79.5C83.3332 83.2712 83.3332 85.1569 82.1616 86.3284C80.99 87.5 79.1044 87.5 75.3332 87.5H24.6665C20.8953 87.5 19.0096 87.5 17.8381 86.3284C16.6665 85.1569 16.6665 83.2712 16.6665 79.5V37.3333Z" stroke="#0348AC" stroke-width="4"/>
</svg>
