<svg width="272" height="61" viewBox="0 0 272 61" fill="none" xmlns="http://www.w3.org/2000/svg">
<path d="M143.641 29.8685C144.857 28.3933 145.465 26.6 145.465 24.5463C145.465 21.8851 144.509 19.6289 142.627 17.8934C140.658 16.0711 138.052 15.1455 134.838 15.1455H122.127V45.2569H129.25V33.6578H132.782L138.863 45.2569H147.086L139.992 32.5008C141.469 31.8933 142.685 30.9966 143.641 29.8685ZM137.299 26.9471C136.575 27.5834 135.649 27.8727 134.433 27.8727H129.221V21.2488H134.433C135.62 21.2488 136.546 21.5669 137.299 22.1744C137.994 22.7818 138.342 23.5628 138.342 24.5463C138.342 25.5587 137.994 26.3396 137.299 26.9471Z" fill="#2A51A3"/>
<path d="M111.24 34.5545C111.24 36.0875 110.805 37.2445 109.908 38.1123C109.039 38.98 107.881 39.385 106.346 39.385C104.812 39.385 103.653 38.98 102.785 38.1123C101.916 37.2445 101.482 36.0875 101.482 34.5545V15.1455H94.3586V34.7569C94.3586 37.9098 95.5169 40.542 97.8333 42.5379C100.121 44.4759 102.987 45.4883 106.346 45.4883C109.734 45.4883 112.601 44.5048 114.859 42.5379C117.147 40.542 118.305 37.9098 118.305 34.7569V15.1455H111.24V34.5545Z" fill="#2A51A3"/>
<path d="M68.009 21.2488H76.1455V45.2279H83.2685V21.2488H91.405V15.1455H68.009V21.2488Z" fill="#2A51A3"/>
<path d="M175.607 15.1455H166.834L156.584 26.9181V15.1455H149.49V45.2279H156.584V36.1743L160.029 32.3561L167.818 45.2279H176.128L164.778 27.2653L175.607 15.1455Z" fill="#2A51A3"/>
<path d="M258.594 39.1247V15.1455H251.471V45.2279H272V39.1247H258.594Z" fill="#2A51A3"/>
<path d="M236.009 15.1455H228.885V45.2279H248.778V39.1247H236.009V15.1455Z" fill="#2A51A3"/>
<path d="M188.435 20.9017C190.983 20.9017 192.546 22.1455 193.241 24.6909L193.357 25.067H200.596L200.48 24.4595C199.93 21.3356 198.54 18.9348 196.368 17.2571C194.226 15.6084 191.533 14.7695 188.406 14.7695C187.161 14.7695 185.973 14.9142 184.873 15.2034C180.153 16.3026 177.055 19.3687 175.376 24.5463C174.768 26.4554 174.652 28.6248 174.652 30.1C174.652 31.8066 174.855 33.6578 175.26 35.1619C175.955 37.6785 177.2 39.9057 178.85 41.5834C179.082 41.8437 179.314 42.104 179.574 42.3354C181.949 44.5627 184.931 45.6908 188.406 45.6908C191.504 45.6908 194.168 44.852 196.282 43.2321C198.54 41.5255 199.959 39.0958 200.509 35.9719L200.625 35.3644H193.386L193.27 35.7405C192.604 38.2859 191.041 39.5297 188.464 39.5297C186.813 39.5297 185.568 39.2983 184.236 38.1123C183.57 37.4181 183.049 36.6661 182.644 35.8272C182.209 34.9305 181.746 32.9347 181.746 30.0421C181.746 26.4265 182.557 23.9967 184.265 22.3769C185.25 21.3356 186.581 20.9017 188.435 20.9017Z" fill="#2A51A3"/>
<path d="M203.491 45.2279H225.034V39.1247H210.614V33.1082H222.892V27.0049H210.614V21.2488H225.034V15.1455H203.491V45.2279Z" fill="#2A51A3"/>
<path d="M55.7034 14.1043C53.4449 10.6043 50.7231 7.76966 47.538 5.5424C44.3529 3.31514 40.7045 1.72424 36.6218 0.798631C29.9041 -0.734415 23.3892 -0.0402058 17.1059 2.70771C13.6312 4.24076 10.5619 6.35231 7.89805 9.04237C4.62609 12.3977 2.25175 16.1869 0.803976 20.439C0.803976 20.4679 0.775021 20.5258 0.775021 20.5547C0.71711 20.6993 0.688155 20.8439 0.630244 21.0175C-0.875436 25.9059 0.514422 28.596 2.71503 26.3398C2.8019 26.253 2.88876 26.1373 2.97563 26.0505C3.00459 26.0216 3.03354 25.9637 3.0625 25.9348C5.63952 22.753 9.72223 20.1208 9.72223 20.1208C10.7646 19.3977 11.836 18.7324 12.9652 18.125C14.2393 17.3729 15.6002 16.7076 16.8453 16.2448C16.8453 16.2448 18.0035 15.7241 18.322 14.1332C18.322 14.1043 18.322 14.0754 18.3509 14.0465C18.3509 14.0175 18.3509 14.0175 18.3509 13.9886C18.5536 12.658 20.0014 9.01345 24.0841 8.78204C25.3581 8.60849 26.6322 8.8399 27.7614 9.36055C29.7304 10.2862 31.2361 12.1374 31.5546 14.3646C31.7862 16.1291 31.3809 17.8068 30.4543 19.1084C30.3964 19.1952 30.3385 19.253 30.2806 19.3398C30.2516 19.3687 30.2516 19.3977 30.2226 19.3977C29.4698 20.3811 28.3985 21.1332 27.1534 21.5671C26.3716 21.8274 25.6187 21.972 24.8949 21.972C24.4316 22.0299 23.9393 21.972 23.4181 21.8563C22.839 21.7406 22.3178 21.5382 21.8545 21.3067C21.0727 20.9307 20.4357 20.5258 20.2041 20.3233C20.0303 20.1497 19.8277 20.063 19.625 20.0051C19.1906 19.9473 18.8432 20.0051 18.5826 20.1208C18.4378 20.1787 18.322 20.2654 18.2351 20.3233C17.2506 21.1332 16.3241 21.972 15.4554 22.8398C13.139 25.2406 11.199 27.9596 10.2724 29.2902C9.78014 30.0422 9.31686 30.8232 8.91148 31.6331C8.50611 32.3852 8.12969 33.1372 7.78222 33.8893C7.23207 35.0752 6.73983 36.3769 6.27654 37.7653C6.24759 37.8232 6.24759 37.881 6.21863 37.9678C6.18968 38.0546 6.16072 38.1413 6.13177 38.2281C6.10281 38.3149 6.07386 38.4017 6.0449 38.4884C3.23623 47.9471 8.30342 53.414 12.5309 47.7156C12.7625 47.3396 12.9942 46.9925 13.2548 46.6454C17.685 39.0669 26.8059 33.629 26.8059 33.629C27.3561 33.2819 27.9352 32.9348 28.4853 32.6166C28.4853 32.6166 28.5143 32.5877 28.6011 32.5587C30.1647 31.691 31.7573 30.8811 33.4077 30.1868C34.8845 29.5505 36.4481 28.9431 37.7221 28.6249C37.7221 28.6249 39.2278 28.2488 39.6331 26.3976C39.9227 25.0671 40.9072 23.158 43.0788 22.1167C43.6 21.8563 44.1212 21.6539 44.6714 21.5382C45.2505 21.4224 45.8586 21.3646 46.4087 21.3935C46.7851 21.3935 47.1036 21.4224 47.3642 21.5092C50.144 22.0299 52.4314 24.2861 52.7499 27.2365C53.1553 30.8232 50.6072 34.0629 46.9878 34.5257C45.1926 34.7571 43.5421 34.3521 42.1523 33.3108C40.5887 32.6744 39.3725 33.0794 38.9382 33.2819C37.5773 34.005 36.2454 34.8438 35.0003 35.7116C32.6549 37.4182 30.8018 39.2116 30.0779 39.9347C28.4564 41.5835 27.0376 43.319 25.7925 45.1702C25.7346 45.257 25.6477 45.3727 25.5898 45.4884C25.5608 45.5173 25.5608 45.5462 25.5319 45.5752C24.2578 47.571 22.8969 50.1454 21.7677 53.2404C21.6808 53.4718 21.5939 53.7321 21.5071 53.9635C20.3199 57.9263 22.8969 59.5172 25.9083 60.0957C25.9083 60.0957 28.2537 60.5296 31.6415 60.2982C31.8441 60.2693 32.0179 60.2693 32.1627 60.2403C33.0024 60.1246 33.871 60.0379 34.7107 59.8932C40.5308 58.9098 45.6848 56.509 50.086 52.633C55.6165 47.7446 58.9753 41.6124 59.9888 34.381C61.1759 27.1208 59.6992 20.3233 55.7034 14.1043Z" fill="#FFC828"/>
</svg>
