<svg width="201" height="201" viewBox="0 0 201 201" fill="none" xmlns="http://www.w3.org/2000/svg">
<g clip-path="url(#clip0_731_3654)">
<path d="M200.982 102.779C200.911 99.5276 198.221 96.9475 194.982 97.0202C191.74 97.0912 189.168 99.7847 189.239 103.036C189.292 105.429 189.211 107.846 188.999 110.228C188.712 113.468 191.097 116.328 194.328 116.616C194.505 116.632 194.681 116.64 194.856 116.64C197.863 116.64 200.427 114.334 200.699 111.273C200.948 108.457 201.044 105.606 200.982 102.779Z" fill="#FFC828"/>
<path d="M141.428 167.417C138.716 168.266 136.818 169.107 133.109 169.314H60.2948C57.0514 169.314 54.4219 171.95 54.4219 175.203C54.4219 178.455 57.0514 181.091 60.2948 181.091H133.109C138.365 181.091 141.937 179.835 144.563 178.767C147.689 177.898 149.521 174.654 148.655 171.52C147.79 168.385 144.555 166.548 141.428 167.417Z" fill="#FFC828"/>
<path d="M185.255 81.8942C186.127 84.2802 188.375 85.7595 190.77 85.7595C191.441 85.7595 192.123 85.6437 192.789 85.3987C195.835 84.2802 197.4 80.8982 196.285 77.8443C195.316 75.1932 194.191 72.5677 192.941 70.0414C191.499 67.1281 187.974 65.939 185.069 67.3845C182.164 68.8303 180.977 72.3639 182.419 75.2769C183.48 77.4192 184.434 79.6455 185.255 81.8942Z" fill="#FFC828"/>
<path d="M178.101 49.4696C176.095 47.4862 173.955 45.5932 171.741 43.8431C169.194 41.83 165.501 42.2689 163.493 44.8226C161.485 47.3767 161.922 51.0795 164.47 53.0927C166.344 54.5742 168.155 56.1764 169.853 57.855C170.997 58.9864 172.487 59.551 173.976 59.551C175.493 59.551 177.009 58.9656 178.158 57.7973C180.436 55.4815 180.41 51.7532 178.101 49.4696Z" fill="#FFC828"/>
<path d="M166.582 153.972C164.776 155.53 162.861 157.005 160.891 158.356C158.213 160.191 157.526 163.856 159.357 166.541C160.495 168.209 162.336 169.107 164.21 169.107C165.352 169.107 166.506 168.773 167.519 168.078C169.847 166.483 172.109 164.741 174.242 162.9C176.701 160.78 176.98 157.061 174.864 154.596C172.749 152.131 169.041 151.852 166.582 153.972Z" fill="#FFC828"/>
<path d="M191.348 128.062C188.387 126.733 184.914 128.063 183.589 131.032C182.978 132.401 182.311 133.77 181.606 135.1C181.19 135.885 180.751 136.674 180.301 137.445C178.665 140.253 179.608 143.859 182.409 145.5C183.34 146.047 184.36 146.306 185.366 146.306C187.385 146.306 189.35 145.261 190.442 143.388C190.97 142.481 191.487 141.553 191.976 140.63C192.806 139.065 193.592 137.454 194.311 135.842C195.635 132.873 194.309 129.39 191.348 128.062Z" fill="#FFC828"/>
<path d="M149.577 31.6053C146.919 30.6639 144.182 29.8622 141.441 29.2223C138.282 28.4863 135.125 30.4546 134.389 33.6224C133.654 36.7897 135.618 39.9554 138.777 40.6931C141.097 41.2348 143.415 41.9136 145.666 42.7105C146.312 42.9398 146.972 43.0482 147.621 43.0482C150.041 43.0482 152.307 41.5367 153.159 39.1192C154.239 36.0524 152.635 32.6884 149.577 31.6053Z" fill="#FFC828"/>
<path d="M143.017 71.8175L131.099 84.5676C128.934 83.6125 126.544 83.0782 124.03 83.0782C114.315 83.0782 106.412 91.0031 106.412 100.744C106.412 110.485 114.315 118.41 124.03 118.41C133.745 118.41 141.649 110.485 141.649 100.744C141.649 97.8167 140.931 95.0557 139.668 92.6221L151.587 79.8708C153.805 77.4981 153.685 73.7713 151.318 71.5474C148.952 69.3238 145.235 69.4443 143.017 71.8175ZM124.031 106.633C120.792 106.633 118.158 103.991 118.158 100.744C118.158 97.4972 120.792 94.8555 124.031 94.8555C127.269 94.8555 129.903 97.4972 129.903 100.744C129.903 103.991 127.269 106.633 124.031 106.633Z" fill="#FFC828"/>
<path d="M63.4375 122.597C63.4375 119.345 60.808 116.708 57.5645 116.708H5.87297C2.62949 116.708 0 119.345 0 122.597C0 125.849 2.62949 128.486 5.87297 128.486H57.5649C60.808 128.486 63.4375 125.849 63.4375 122.597Z" fill="#FFC828"/>
<path d="M79.0242 148.9C79.0242 145.648 76.3947 143.011 73.1513 143.011H29.3647C26.1212 143.011 23.4917 145.648 23.4917 148.9C23.4917 152.152 26.1212 154.788 29.3647 154.788H73.1513C76.3947 154.788 79.0242 152.152 79.0242 148.9Z" fill="#FFC828"/>
<path d="M41.8934 76.6654H59.8986C60.3508 76.7745 60.809 76.8283 61.264 76.8283C63.3658 76.8283 65.399 75.6938 66.4546 73.7034C71.4125 64.3549 78.2991 56.5874 86.9241 50.6167C92.28 46.9092 98.2154 44.0202 104.441 42.0502C103.64 44.0512 103.964 46.4196 105.485 48.1454C106.646 49.4621 108.263 50.1346 109.888 50.1346C111.269 50.1346 112.657 49.6482 113.774 48.6585L126.321 37.5411C127.793 36.2369 128.517 34.2815 128.25 32.3304C127.984 30.3793 126.762 28.6908 124.995 27.8306L109.932 20.5016C107.013 19.0817 103.5 20.3026 102.084 23.2288C100.934 25.6055 101.522 28.3763 103.347 30.0935C95.1176 32.4042 87.2636 36.0705 80.2506 40.9255C71.2347 47.1671 63.5845 55.403 57.9404 64.8885H41.893C38.6495 64.8885 36.02 67.525 36.02 70.7771C36.0204 74.0289 38.6499 76.6654 41.8934 76.6654Z" fill="#FFC828"/>
<path d="M29.3647 102.183H52.1507C55.3942 102.183 58.0237 99.5464 58.0237 96.2943C58.0237 93.0422 55.3942 90.4056 52.1507 90.4056H29.3647C26.1212 90.4056 23.4917 93.0422 23.4917 96.2943C23.4917 99.5464 26.1212 102.183 29.3647 102.183Z" fill="#FFC828"/>
</g>
<defs>
<clipPath id="clip0_731_3654">
<rect width="201" height="201" fill="white"/>
</clipPath>
</defs>
</svg>
