<svg width="152" height="153" viewBox="0 0 152 153" fill="none" xmlns="http://www.w3.org/2000/svg">
<path d="M4.87694 83.9917C7.91779 91.1814 12.2687 97.6353 17.8088 103.175C23.3489 108.715 29.8031 113.066 36.9925 116.107C44.4416 119.258 52.348 120.855 60.492 120.855C68.6359 120.855 76.5427 119.258 83.9915 116.107C85.2396 115.579 86.4642 115.009 87.6671 114.403L121.489 148.225C124.485 151.22 128.468 152.871 132.705 152.871C136.942 152.871 140.926 151.22 143.922 148.225L146.648 145.499C152.832 139.314 152.832 129.251 146.648 123.066L113.312 89.7296C114.339 87.8739 115.275 85.9613 116.107 83.9915C119.258 76.5424 120.856 68.636 120.856 60.492C120.856 52.348 119.258 44.4413 116.107 36.9925C113.067 29.8031 108.716 23.3489 103.175 17.8088C97.6353 12.2687 91.1811 7.91779 83.9917 4.87694C76.5429 1.72664 68.6365 0.129028 60.4925 0.129028C52.3485 0.129028 44.4418 1.72638 36.993 4.8772C29.8037 7.91805 23.3495 12.2689 17.8093 17.8091C12.2695 23.3492 7.91856 29.8034 4.87771 36.9928C1.72689 44.4418 0.129028 52.3483 0.129028 60.4923C0.129028 68.6362 1.72638 76.5427 4.87694 83.9917ZM99.1005 91.1571C96.2958 94.6833 93.0183 97.8157 89.3638 100.46C86.2703 102.699 82.9068 104.587 79.3311 106.067C73.5266 108.469 67.1651 109.797 60.4925 109.797C33.2622 109.797 11.1876 87.7226 11.1876 60.4923C11.1876 33.2619 33.2622 11.1876 60.4925 11.1876C87.7226 11.1876 109.797 33.2622 109.797 60.4925C109.797 68.0133 108.111 75.1392 105.099 81.517C103.469 84.9683 101.451 88.2007 99.1005 91.1571ZM138.829 130.885C140.705 132.762 140.705 135.803 138.829 137.679L136.103 140.405C135.165 141.343 133.935 141.812 132.706 141.812C131.476 141.812 130.247 141.343 129.309 140.405L97.2674 108.363C99.3354 106.771 101.309 105.043 103.176 103.175C104.508 101.843 105.77 100.456 106.964 99.02L138.829 130.885Z" fill="#0348AC"/>
<path d="M132.706 153C128.434 153 124.418 151.337 121.398 148.316L87.6421 114.56C86.4454 115.161 85.235 115.721 84.0419 116.226C76.5778 119.383 68.6546 120.985 60.4923 120.985C52.3313 120.985 44.4081 119.384 36.9427 116.226C29.7384 113.179 23.2703 108.819 17.718 103.267C12.1657 97.7143 7.80554 91.2465 4.75849 84.0419C1.60096 76.5771 0 68.6538 0 60.4923C0 52.3313 1.60096 44.4078 4.75849 36.9425C7.8058 29.7379 12.1657 23.2697 17.7177 17.7177C23.2697 12.1657 29.7379 7.80554 36.9425 4.75824C44.4075 1.60096 52.3308 0 60.4926 0C68.6538 0 76.5771 1.60096 84.0421 4.75849C91.2467 7.80554 97.7151 12.1657 103.267 17.718C108.819 23.2703 113.179 29.7384 116.227 36.9427C119.384 44.4073 120.985 52.3308 120.985 60.4926C120.985 68.6535 119.384 76.5765 116.227 84.0421C115.42 85.9503 114.493 87.8553 113.472 89.7072L146.74 122.975C152.974 129.21 152.974 139.355 146.739 145.59L144.013 148.316C140.993 151.337 136.977 153 132.706 153ZM87.6924 114.246L121.58 148.134C124.552 151.105 128.503 152.742 132.706 152.742C136.908 152.742 140.859 151.105 143.831 148.134L146.557 145.407C152.691 139.273 152.692 129.292 146.557 123.157L113.152 89.7521L113.199 89.6672C114.235 87.7967 115.173 85.8702 115.989 83.9414C119.133 76.5079 120.727 68.6184 120.727 60.4923C120.727 52.3654 119.132 44.4757 115.989 37.0431C112.955 29.8695 108.613 23.429 103.085 17.9002C97.5561 12.3717 91.1156 8.03012 83.942 4.99598C76.5084 1.85213 68.6192 0.258137 60.4926 0.258137C52.3656 0.258137 44.4762 1.85213 37.0434 4.99598C29.8695 8.03012 23.429 12.3717 17.9005 17.9002C12.3722 23.4288 8.03064 29.8693 4.9965 37.0431C1.85239 44.4765 0.258395 52.3659 0.258395 60.4923C0.258395 68.619 1.85239 76.5084 4.99624 83.9414C8.03012 91.1148 12.3717 97.5553 17.9005 103.084C23.4293 108.613 29.8698 112.954 37.0434 115.988C44.4767 119.132 52.3661 120.726 60.4926 120.726C68.6202 120.726 76.5097 119.132 83.942 115.988C85.1573 115.474 86.3912 114.902 87.6096 114.287L87.6924 114.246ZM132.706 141.941C131.388 141.941 130.149 141.428 129.218 140.496L97.0723 108.351L97.1888 108.261C99.2619 106.665 101.245 104.923 103.084 103.084C104.395 101.774 105.667 100.379 106.864 98.9376L106.955 98.8287L138.92 130.794C140.844 132.717 140.844 135.847 138.92 137.77L136.194 140.496C135.262 141.428 134.024 141.941 132.706 141.941ZM97.4627 108.376L129.4 140.314C130.283 141.197 131.457 141.683 132.706 141.683C133.955 141.683 135.129 141.197 136.012 140.314L138.738 137.588C140.561 135.765 140.561 132.8 138.738 130.977L106.972 99.2115C105.796 100.62 104.55 101.984 103.267 103.267C101.455 105.079 99.5024 106.798 97.4627 108.376ZM60.4923 109.926C33.2343 109.926 11.0583 87.7503 11.0583 60.4923C11.0583 33.2343 33.2343 11.0586 60.4923 11.0586C87.7503 11.0586 109.926 33.2346 109.926 60.4926C109.926 67.8603 108.341 74.9523 105.216 81.5723C103.594 85.006 101.571 88.2577 99.2015 91.2377C96.387 94.7762 93.1025 97.9141 89.4395 100.565C86.3171 102.825 82.9326 104.716 79.3804 106.186C73.3842 108.668 67.0291 109.926 60.4923 109.926ZM60.4923 11.3165C33.3768 11.3165 11.3165 33.3766 11.3165 60.492C11.3165 87.6075 33.3766 109.668 60.4923 109.668C66.995 109.668 73.3168 108.416 79.2816 105.947C82.8152 104.485 86.1818 102.603 89.2882 100.355C92.9321 97.7185 96.1993 94.5968 98.9993 91.0766C101.357 88.1127 103.37 84.8774 104.982 81.4615C108.092 74.8767 109.668 67.8216 109.668 60.4923C109.668 33.3766 87.608 11.3165 60.4923 11.3165Z" fill="#0348AC"/>
<path d="M81.1805 39.901C79.0212 37.7417 75.5201 37.7417 73.361 39.901L60.5895 52.6726L47.8179 39.901C45.6583 37.7417 42.1574 37.7417 39.9984 39.901C37.8391 42.0606 37.8391 45.5611 39.9984 47.7207L52.77 60.492L39.9984 73.2636C37.8391 75.4229 37.8391 78.9238 39.9984 81.0831C41.0782 82.1631 42.493 82.7024 43.9081 82.7024C45.323 82.7024 46.7383 82.1624 47.8179 81.0831L60.5895 68.3118L62.8626 70.5849L70.6821 78.4044L73.3608 81.0831C74.4406 82.1626 75.8557 82.7024 77.2705 82.7024C78.6854 82.7024 80.1007 82.1624 81.1802 81.0831C83.3396 78.9238 83.3396 75.4229 81.1802 73.2636L78.507 70.5901L70.6872 62.7706L68.4089 60.4923L81.1805 47.721C83.3398 45.5611 83.3398 42.0606 81.1805 39.901Z" fill="#0348AC"/>
<path d="M77.2704 82.8317C75.7593 82.8317 74.3382 82.2431 73.2693 81.1745L60.5888 68.4943L47.9084 81.1745C46.8397 82.2431 45.4187 82.8317 43.9073 82.8317C42.3956 82.8317 40.9746 82.2431 39.9061 81.1745C38.8375 80.1055 38.2489 78.6847 38.2489 77.1733C38.2489 75.6622 38.8375 74.2412 39.9061 73.1722L52.5863 60.492L39.9061 47.8118C37.7001 45.6055 37.7001 42.0159 39.9061 39.8096C40.9748 38.7409 42.3959 38.1523 43.907 38.1523C45.4184 38.1523 46.8394 38.7409 47.9081 39.8096L60.5886 52.4898L73.269 39.8096C74.3377 38.7409 75.7588 38.1523 77.2702 38.1523C78.7815 38.1523 80.2026 38.7409 81.2713 39.8096C83.4773 42.0159 83.4773 45.6055 81.2713 47.8118L68.5911 60.492L81.2713 73.1722C82.3402 74.2409 82.9285 75.6619 82.9285 77.1733C82.9285 78.6847 82.3402 80.1055 81.2713 81.1745C80.2028 82.2431 78.7818 82.8317 77.2704 82.8317ZM60.5891 68.1293L73.452 80.992C74.4722 82.0119 75.8285 82.5736 77.2704 82.5736C78.7129 82.5736 80.0689 82.0119 81.089 80.992C82.1089 79.9721 82.6706 78.6158 82.6706 77.1733C82.6706 75.7311 82.1089 74.3749 81.089 73.355L68.2263 60.4923L81.089 47.6296C83.1944 45.524 83.1944 42.098 81.089 39.9923C80.0691 38.9724 78.7129 38.4107 77.2704 38.4107C75.8279 38.4107 74.4719 38.9724 73.452 39.9923L60.5891 52.855L47.7261 39.9923C46.706 38.9724 45.3497 38.4107 43.9075 38.4107C42.4653 38.4107 41.1091 38.9724 40.0892 39.9923C37.9838 42.098 37.9838 45.524 40.0892 47.6296L52.9519 60.4923L40.0892 73.355C39.0693 74.3749 38.5076 75.7311 38.5076 77.1733C38.5076 78.6158 39.0693 79.9721 40.0892 80.992C41.1088 82.0119 42.465 82.5736 43.9075 82.5736C45.35 82.5736 46.706 82.0119 47.7261 80.992L60.5891 68.1293Z" fill="#0348AC"/>
</svg>
