<svg width="80" height="80" viewBox="0 0 80 80" fill="none" xmlns="http://www.w3.org/2000/svg">
<g id="left-chevron 1">
<g id="Icon">
<path id="_177" d="M11.5074 41.8998L37.1823 67.5748C39.224 69.6164 42.7349 68.178 42.7349 65.2702V57.7069C42.7349 56.8408 42.3947 56.021 41.776 55.4024L25.9689 39.5952L41.776 23.7881C42.3792 23.1849 42.7349 22.3497 42.7349 21.4836V13.9203C42.7349 11.028 39.2394 9.57409 37.1823 11.6157L11.5074 37.2907C10.2391 38.5744 10.2391 40.6161 11.5074 41.8998ZM37.4143 41.8998L63.0893 67.5748C65.1309 69.6164 68.6419 68.178 68.6419 65.2702V57.7069C68.6419 56.8408 68.3016 56.021 67.683 55.4024L51.8758 39.5952L67.683 23.7881C68.2862 23.1849 68.6419 22.3497 68.6419 21.4836V13.9203C68.6419 11.028 65.1464 9.57409 63.0893 11.6157L37.4143 37.2907C36.1461 38.5744 36.1461 40.6161 37.4143 41.8998Z" fill="url(#paint0_linear_212_3282)"/>
</g>
</g>
<defs>
<linearGradient id="paint0_linear_212_3282" x1="30.8236" y1="17.9822" x2="74.0497" y2="61.2083" gradientUnits="userSpaceOnUse">
<stop stop-color="#54BDFF"/>
<stop offset="1" stop-color="#0042C7"/>
</linearGradient>
</defs>
</svg>
