<svg width="49" height="49" viewBox="0 0 49 49" fill="none" xmlns="http://www.w3.org/2000/svg">
<path id="Vector" d="M31.7738 27.3388L26.1497 24.0892V12.8034C26.1497 12.1419 25.6133 11.6056 24.9518 11.6056C24.2904 11.6056 23.754 12.1419 23.754 12.8034V24.7817C23.7542 25.2094 23.9824 25.6045 24.3529 25.8181L30.576 29.4116C30.7579 29.5174 30.9645 29.5731 31.1749 29.573C31.6022 29.5727 31.9968 29.3449 32.2107 28.9751C32.5419 28.4026 32.3464 27.6699 31.7738 27.3388ZM24.9518 0.825195C11.7211 0.825195 0.995361 11.5509 0.995361 24.7817C0.995361 38.0124 11.7211 48.7382 24.9518 48.7382C38.1762 48.7227 48.8928 38.006 48.9083 24.7817C48.9083 11.5509 38.1826 0.825195 24.9518 0.825195ZM24.9518 46.3425C13.0441 46.3425 3.39101 36.6894 3.39101 24.7817C3.39101 12.8739 13.0441 3.22084 24.9518 3.22084C36.8542 3.23386 46.4997 12.8793 46.5127 24.7817C46.5127 36.6894 36.8596 46.3425 24.9518 46.3425Z" fill="#333333"/>
</svg>
