<svg width="49" height="49" viewBox="0 0 49 49" fill="none" xmlns="http://www.w3.org/2000/svg">
<path d="M48.5544 14.3931C48.5407 14.3377 48.546 14.2813 48.5242 14.2268L48.5175 14.2098C48.5161 14.2064 48.5149 14.2031 48.5133 14.1996L43.4808 1.61816C43.2905 1.13887 42.8266 0.824427 42.311 0.825197H7.00673C6.49112 0.824427 6.02722 1.13887 5.83698 1.61816L0.804438 14.1996C0.802899 14.2031 0.801667 14.2064 0.800282 14.2098L0.79351 14.2268C0.769807 14.2863 0.774732 14.3474 0.760418 14.4077C0.737639 14.5025 0.702393 14.593 0.702393 14.6947C0.702393 14.7012 0.70424 14.7071 0.70424 14.7135C0.704393 14.72 0.706086 14.7258 0.70624 14.7323C0.722709 17.7093 2.21537 20.3292 4.485 21.9183V47.4773C4.485 47.4778 4.485 47.4782 4.485 47.4787C4.48546 48.1747 5.04986 48.7386 5.74586 48.7382H30.9632H30.9648H43.5719C43.5724 48.7382 43.5728 48.7382 43.5734 48.7382C44.2693 48.7377 44.8332 48.1733 44.8328 47.4773V21.9183C47.1033 20.3286 48.5964 17.7075 48.6118 14.7289C48.6118 14.7246 48.6132 14.7206 48.6132 14.7163C48.6132 14.7089 48.6154 14.7021 48.6154 14.6947C48.6154 14.5878 48.5795 14.4923 48.5544 14.3931ZM29.7024 46.2164H19.6154V31.086H29.7024V46.2164ZM42.311 46.2164H32.2241V29.8252C32.2241 29.8247 32.2241 29.8242 32.2241 29.8236C32.2236 29.1278 31.6592 28.5638 30.9632 28.5643H18.3545C18.3541 28.5643 18.3536 28.5643 18.3532 28.5643C17.6572 28.5647 17.0932 29.1292 17.0937 29.8252V46.2164H7.00673V23.1082C7.81078 23.3501 8.64592 23.5197 9.52847 23.5208C12.7602 23.517 15.5559 21.7596 17.0937 19.1673C18.6314 21.7596 21.4271 23.517 24.6589 23.5208C27.8906 23.517 30.6863 21.7596 32.2241 19.1673C33.7618 21.7596 36.5575 23.517 39.7893 23.5208C40.6718 23.5197 41.507 23.3501 42.311 23.1082V46.2164ZM39.7893 20.9991C36.3074 20.9991 33.485 18.1766 33.485 14.6947C33.485 13.9984 32.9204 13.4339 32.2241 13.4339C31.5278 13.4339 30.9632 13.9984 30.9632 14.6947C30.9632 18.1766 28.1407 20.9991 24.6589 20.9991C21.177 20.9991 18.3545 18.1766 18.3545 14.6947C18.3545 13.9984 17.79 13.4339 17.0937 13.4339C16.3974 13.4339 15.8328 13.9984 15.8328 14.6947C15.8328 18.1766 13.0103 20.9991 9.52847 20.9991C6.11233 20.9991 3.34726 18.2776 3.24352 14.8867L7.86126 3.34693H41.4565L46.0742 14.8867C45.9705 18.2776 43.2054 20.9991 39.7893 20.9991Z" fill="#039855"/>
</svg>
