<svg width="150" height="150" viewBox="0 0 150 150" fill="none" xmlns="http://www.w3.org/2000/svg">
<g clip-path="url(#clip0_733_908)">
<path d="M95.8009 0C65.9151 0 41.6017 24.3135 41.6017 54.1992C41.6017 63.1321 43.7755 71.5664 47.6195 79.0031L7.21915 113.632C-1.92382 121.468 -2.45995 135.43 6.0549 143.945C14.5697 152.46 28.5315 151.924 36.3681 142.781L70.9967 102.381C78.4337 106.225 86.868 108.398 95.8009 108.398C125.687 108.398 150 84.085 150 54.1992C150 24.3135 125.687 0 95.8009 0ZM29.6951 137.061C25.1904 142.317 17.1646 142.625 12.2699 137.73C7.37531 132.836 7.68351 124.81 12.9391 120.305L37.8628 98.942L51.0581 112.137L29.6951 137.061ZM56.7947 105.444L44.5557 93.2051L52.3334 86.5386C55.4849 90.7635 59.2366 94.5152 63.4615 97.6667L56.7947 105.444ZM95.8009 99.6094C70.7617 99.6094 50.3907 79.2384 50.3907 54.1992C50.3907 29.1601 70.7617 8.78906 95.8009 8.78906C120.84 8.78906 141.211 29.1601 141.211 54.1992C141.211 79.2384 120.84 99.6094 95.8009 99.6094Z" fill="#F91010"/>
<path d="M18.4844 125.301C16.7682 127.017 16.7682 129.799 18.4844 131.515C20.2006 133.232 22.983 133.232 24.6992 131.515C26.4154 129.799 26.4154 127.017 24.6992 125.301C22.9833 123.585 20.2006 123.585 18.4844 125.301Z" fill="#F91010"/>
<path d="M95.8008 84.9609C98.2278 84.9609 100.195 82.9934 100.195 80.5664C100.195 78.1394 98.2278 76.1719 95.8008 76.1719C93.3737 76.1719 91.4062 78.1394 91.4062 80.5664C91.4062 82.9934 93.3737 84.9609 95.8008 84.9609Z" fill="#F91010"/>
<path d="M96.137 23.4407C87.8466 23.2778 80.7304 29.332 79.5866 37.5308C79.482 38.2802 79.4287 39.0472 79.4287 39.8104C79.4287 42.2373 81.3963 44.2049 83.8232 44.2049C86.2502 44.2049 88.2178 42.2373 88.2178 39.8104C88.2178 39.4529 88.2424 39.0961 88.2913 38.7469C88.8134 35.0042 92.029 32.2263 95.8048 32.2263C95.8563 32.2263 95.9085 32.2269 95.9598 32.228C99.9131 32.3074 103.17 35.4583 103.375 39.4008C103.484 41.5069 102.748 43.5062 101.301 45.0296C99.8533 46.5545 97.9001 47.3941 95.8016 47.3941C93.3746 47.3941 91.407 49.3617 91.407 51.7887V62.9883C91.407 65.4152 93.3746 67.3828 95.8016 67.3828C98.2285 67.3828 100.196 65.4152 100.196 62.9883V55.5768C103.024 54.7846 105.626 53.2392 107.675 51.0812C110.797 47.792 112.387 43.4821 112.152 38.9452C111.71 30.4233 104.675 23.613 96.137 23.4407Z" fill="#F91010"/>
</g>
<defs>
<clipPath id="clip0_733_908">
<rect width="150" height="150" fill="white"/>
</clipPath>
</defs>
</svg>
