<svg width="41" height="41" viewBox="0 0 41 41" fill="none" xmlns="http://www.w3.org/2000/svg">
<g id="home-2 2" clip-path="url(#clip0_252_2443)">
<path id="Vector" d="M39.4529 17.8955C39.452 17.8946 39.4511 17.8937 39.4502 17.8928L23.1358 1.57894C22.4404 0.883244 21.5158 0.5 20.5324 0.5C19.5489 0.5 18.6244 0.882939 17.9287 1.57864L1.62281 17.8842C1.61731 17.8897 1.61182 17.8955 1.60633 17.901C0.178316 19.3373 0.180758 21.6675 1.61335 23.1001C2.26785 23.7549 3.13229 24.1342 4.05653 24.1739C4.09406 24.1775 4.1319 24.1794 4.17004 24.1794H4.82027V36.1854C4.82027 38.5611 6.75328 40.4941 9.12964 40.4941H15.5124C16.1592 40.4941 16.6841 39.9696 16.6841 39.3224V29.9097C16.6841 28.8256 17.5659 27.9438 18.65 27.9438H22.4147C23.4989 27.9438 24.3807 28.8256 24.3807 29.9097V39.3224C24.3807 39.9696 24.9052 40.4941 25.5524 40.4941H31.9351C34.3115 40.4941 36.2445 38.5611 36.2445 36.1854V24.1794H36.8474C37.8306 24.1794 38.7551 23.7964 39.4511 23.1007C40.8852 21.6657 40.8858 19.3315 39.4529 17.8955Z" fill="url(#paint0_linear_252_2443)"/>
</g>
<defs>
<linearGradient id="paint0_linear_252_2443" x1="20.5321" y1="0.5" x2="20.5321" y2="40.4941" gradientUnits="userSpaceOnUse">
<stop stop-color="#0042C7"/>
<stop offset="1" stop-color="#70C8FF"/>
</linearGradient>
<clipPath id="clip0_252_2443">
<rect width="39.9941" height="39.9941" fill="white" transform="translate(0.537109 0.5)"/>
</clipPath>
</defs>
</svg>
