<svg width="25" height="25" viewBox="0 0 25 25" fill="none" xmlns="http://www.w3.org/2000/svg">
<g clip-path="url(#clip0_736_1685)">
<path d="M5.09425 16.6183C7.56006 19.5659 10.5284 21.8867 13.9163 23.5288C15.2061 24.1401 16.9312 24.8653 18.8531 24.9896C18.9722 24.9948 19.0862 25 19.2053 25C20.4952 25 21.5313 24.5545 22.3756 23.6376C22.3808 23.6324 22.3912 23.622 22.3964 23.6117C22.6968 23.2491 23.0387 22.9227 23.3962 22.5756C23.6396 22.3425 23.8883 22.099 24.1266 21.8504C25.23 20.7004 25.23 19.2395 24.1162 18.1258L21.0029 15.0124C20.4745 14.4633 19.8425 14.1732 19.1794 14.1732C18.5163 14.1732 17.8792 14.4633 17.3352 15.0073L15.4807 16.8618C15.3097 16.7634 15.1336 16.6753 14.9678 16.5924C14.7606 16.4888 14.569 16.3904 14.398 16.2816C12.7092 15.2093 11.1759 13.8106 9.70987 12.0131C8.96909 11.0754 8.47178 10.288 8.12471 9.48508C8.61165 9.04476 9.06752 8.58371 9.50784 8.13303C9.66325 7.97244 9.82384 7.81185 9.98442 7.65126C10.5439 7.09179 10.8443 6.44426 10.8443 5.78637C10.8443 5.12847 10.5491 4.48094 9.98442 3.92147L8.4407 2.37775C8.25939 2.19644 8.08844 2.02031 7.91231 1.839C7.57042 1.48674 7.21298 1.12412 6.86072 0.797762C6.32715 0.274554 5.70034 0 5.03726 0C4.37937 0 3.74738 0.274555 3.19309 0.802942L1.25566 2.74036C0.551147 3.44488 0.152266 4.29963 0.0693812 5.28906C-0.0290439 6.52714 0.198888 7.84293 0.789439 9.43328C1.69599 11.8939 3.06358 14.1784 5.09425 16.6183ZM1.33337 5.39784C1.39553 4.70887 1.65973 4.13386 2.15703 3.63655L4.08409 1.70949C4.38455 1.41939 4.71609 1.26917 5.03726 1.26917C5.35326 1.26917 5.67444 1.41939 5.96971 1.71985C6.31679 2.04103 6.64315 2.37775 6.99541 2.73518C7.17154 2.91649 7.35285 3.0978 7.53415 3.28429L9.07788 4.82801C9.39905 5.14919 9.56482 5.47555 9.56482 5.79673C9.56482 6.1179 9.39905 6.44426 9.07788 6.76544C8.91729 6.92603 8.7567 7.09179 8.59611 7.25238C8.11435 7.73933 7.66366 8.20037 7.16636 8.6407C7.156 8.65106 7.15082 8.65624 7.14045 8.6666C6.71049 9.09656 6.77784 9.5058 6.88144 9.81662C6.88662 9.83216 6.8918 9.84252 6.89698 9.85806C7.29586 10.8164 7.85015 11.7281 8.71526 12.816C10.2693 14.7327 11.9063 16.2194 13.709 17.3643C13.9318 17.5093 14.1701 17.6233 14.3928 17.7373C14.6 17.8409 14.7917 17.9393 14.9627 18.0481C14.9834 18.0584 14.9989 18.0688 15.0196 18.0792C15.1906 18.1672 15.3564 18.2087 15.5221 18.2087C15.9366 18.2087 16.2059 17.9445 16.294 17.8564L18.2314 15.919C18.5319 15.6185 18.8582 15.4579 19.1794 15.4579C19.5731 15.4579 19.8943 15.7014 20.0963 15.919L23.22 19.0375C23.8417 19.6591 23.8365 20.3326 23.2045 20.9905C22.9869 21.2236 22.759 21.4463 22.5155 21.6794C22.1529 22.0317 21.7747 22.3943 21.4328 22.8036C20.8371 23.4459 20.1274 23.7464 19.2105 23.7464C19.1224 23.7464 19.0292 23.7412 18.9411 23.736C17.242 23.6272 15.662 22.9642 14.4757 22.3995C11.2536 20.8402 8.42516 18.6283 6.0785 15.8206C4.14626 13.4946 2.84601 11.3293 1.98608 9.0085C1.45251 7.58392 1.25048 6.43908 1.33337 5.39784Z" fill="black"/>
</g>
<defs>
<clipPath id="clip0_736_1685">
<rect width="25" height="25" fill="white"/>
</clipPath>
</defs>
</svg>
